<svg width="42" height="40" viewBox="0 0 42 40" fill="none" xmlns="http://www.w3.org/2000/svg">
<path d="M27.876 28.015C26.7868 29.4514 26.2538 31.2334 26.3755 33.032C26.4972 34.8307 27.2653 36.5246 28.5381 37.8013C29.8109 39.0779 31.5025 39.8512 33.3008 39.9783C35.099 40.1054 36.8826 39.5778 38.3223 38.4929C39.7621 37.408 40.7609 35.839 41.1344 34.0754C41.5079 32.3118 41.2309 30.4725 40.3546 28.8971C39.4783 27.3217 38.0617 26.1164 36.3663 25.5036C34.6709 24.8908 32.8111 24.9119 31.13 25.563C31.0574 25.6587 30.9608 25.7336 30.85 25.78C29.6864 26.2624 28.6637 27.0312 27.877 28.015H27.876ZM0.5 38.948H27.483C25.9342 37.4056 25.0115 35.3443 24.893 33.1617C24.7744 30.9792 25.4684 28.83 26.841 27.129C27.5073 26.2704 28.3251 25.5411 29.254 24.977C27.638 23.7927 25.8346 22.8881 23.919 22.301L19.579 26.642C19.5159 26.7051 19.441 26.7553 19.3586 26.7894C19.2761 26.8236 19.1878 26.8412 19.0985 26.8412C19.0092 26.8412 18.9209 26.8236 18.8384 26.7894C18.756 26.7553 18.6811 26.7051 18.618 26.642L14.062 22.086C10.2819 23.0517 6.91675 25.2171 4.47151 28.2573C2.02628 31.2976 0.632755 35.0487 0.5 38.948ZM32.575 35.828C32.4856 35.8281 32.3971 35.8104 32.3145 35.7761C32.2319 35.7418 32.157 35.6914 32.094 35.628L29.388 32.921C29.2604 32.7934 29.1888 32.6204 29.1888 32.44C29.1888 32.2596 29.2604 32.0865 29.388 31.959C29.5156 31.8314 29.6886 31.7597 29.869 31.7597C30.0494 31.7597 30.2224 31.8314 30.35 31.959L32.577 34.186L37.31 29.453C37.4376 29.3254 37.6106 29.2537 37.791 29.2537C37.9714 29.2537 38.1444 29.3254 38.272 29.453C38.3996 29.5805 38.4712 29.7536 38.4712 29.934C38.4712 30.1144 38.3996 30.2874 38.272 30.415L33.058 35.629C32.9949 35.6923 32.92 35.7426 32.8374 35.7769C32.7549 35.8113 32.6664 35.8289 32.577 35.829L32.575 35.828ZM18.609 18.545C16.7752 18.545 14.9826 18.0012 13.4579 16.9824C11.9331 15.9637 10.7447 14.5156 10.0429 12.8215C9.34108 11.1273 9.1574 9.26304 9.51509 7.46447C9.87277 5.66591 10.7557 4.01379 12.0524 2.71704C13.349 1.42029 15.001 0.537137 16.7995 0.179262C18.598 -0.178614 20.4623 0.00486028 22.1565 0.706483C23.8508 1.40811 25.299 2.59636 26.3179 4.12101C27.3368 5.64565 27.8808 7.4382 27.881 9.27198C27.8781 11.7303 26.9003 14.087 25.1621 15.8254C23.424 17.5638 21.0673 18.5418 18.609 18.545Z" fill="#943AE3"/>
</svg>
