<svg width="42" height="40" viewBox="0 0 42 40" fill="none" xmlns="http://www.w3.org/2000/svg">
<path fill-rule="evenodd" clip-rule="evenodd" d="M2.3632 1.11597C2.94221 1.11755 3.49705 1.34826 3.90648 1.75769C4.3159 2.16711 4.54662 2.72196 4.5482 3.30097V39.517H0.179199V3.30097C0.180781 2.72213 0.411357 2.16744 0.820566 1.75804C1.22977 1.34864 1.78436 1.11781 2.3632 1.11597Z" fill="#943AE3"/>
<path fill-rule="evenodd" clip-rule="evenodd" d="M39.269 1.11597C39.848 1.11755 40.4028 1.34826 40.8122 1.75769C41.2217 2.16711 41.4524 2.72196 41.454 3.30097V39.517H37.085V3.30097C37.0868 2.7223 37.3175 2.16786 37.7267 1.75868C38.1359 1.3495 38.6903 1.11881 39.269 1.11697V1.11597Z" fill="#943AE3"/>
<path fill-rule="evenodd" clip-rule="evenodd" d="M13.6692 1.66289L10.9292 7.80889V9.93989H34.7862C30.7242 -2.33011 28.0392 1.66289 13.6692 1.66289Z" fill="#943AE3"/>
<path fill-rule="evenodd" clip-rule="evenodd" d="M13.6692 22.76L10.9292 28.907V31.038H34.7862C30.7242 18.768 28.0392 22.76 13.6692 22.76Z" fill="#943AE3"/>
<path fill-rule="evenodd" clip-rule="evenodd" d="M3.81006 13.7149H37.8221V7.2969H34.6281C34.9431 8.1069 35.2281 8.9249 35.4851 9.7099L35.8061 10.6789H10.1961V7.6529L10.2271 7.5839C9.38126 7.75428 8.50326 7.6535 7.71806 7.2959H3.81806V13.7139L3.81006 13.7149Z" fill="#943AE3"/>
<path fill-rule="evenodd" clip-rule="evenodd" d="M7.71299 28.3928H3.81299V34.8108H37.822V28.3928H34.628C34.943 29.2028 35.228 30.0208 35.485 30.8058L35.806 31.7748H10.196V28.7488L10.227 28.6798C9.38118 28.8502 8.50319 28.7494 7.71799 28.3918L7.71299 28.3928Z" fill="#943AE3"/>
<path fill-rule="evenodd" clip-rule="evenodd" d="M10.957 27.6459L12.657 23.8409C12.4841 23.1681 12.1062 22.5659 11.5757 22.1175C11.0452 21.6691 10.3884 21.3968 9.69624 21.3383C9.00411 21.2798 8.31092 21.4381 7.71273 21.7911C7.11454 22.1442 6.64096 22.6745 6.35762 23.3087C6.07428 23.9429 5.9952 24.6495 6.13135 25.3306C6.26749 26.0118 6.61211 26.6337 7.11746 27.1102C7.62281 27.5868 8.26387 27.8943 8.95181 27.9903C9.63975 28.0863 10.3405 27.9659 10.957 27.6459Z" fill="#943AE3"/>
<path fill-rule="evenodd" clip-rule="evenodd" d="M10.9571 6.55007L12.6571 2.75007C12.4851 2.07687 12.1078 1.47388 11.5776 1.02472C11.0475 0.575561 10.3907 0.302483 9.69835 0.24335C9.00602 0.184216 8.31245 0.341959 7.71379 0.694705C7.11514 1.04745 6.64107 1.57772 6.35732 2.21199C6.07356 2.84627 5.99419 3.55311 6.13019 4.23452C6.2662 4.91593 6.61085 5.53814 7.11635 6.01488C7.62186 6.49162 8.26317 6.79927 8.95137 6.89517C9.63957 6.99106 10.3406 6.87046 10.9571 6.55007Z" fill="#943AE3"/>
</svg>
