<svg width="30" height="42" viewBox="0 0 30 42" fill="none" xmlns="http://www.w3.org/2000/svg">
<path d="M21.7856 7.10302H23.3497L22.5677 5.24902L21.7856 7.10302Z" fill="#943AE3"/>
<path d="M29.5798 33.3621V0.813086C29.5798 0.706999 29.5377 0.605258 29.4627 0.530243C29.3877 0.455229 29.2859 0.413086 29.1798 0.413086H0.802834C0.696747 0.413086 0.595004 0.455229 0.519989 0.530243C0.444974 0.605258 0.402832 0.706999 0.402832 0.813086V41.2771C0.402832 41.3832 0.444974 41.4849 0.519989 41.5599C0.595004 41.6349 0.696747 41.6771 0.802834 41.6771H21.2778C21.3307 41.6778 21.3831 41.6673 21.4317 41.6465C21.4802 41.6256 21.5239 41.5949 21.5598 41.5561L29.4598 33.6561C29.4754 33.6421 29.4889 33.626 29.4998 33.6081C29.5263 33.5748 29.5454 33.5363 29.5558 33.4951C29.5558 33.493 29.5567 33.4909 29.5582 33.4894C29.5597 33.4879 29.5617 33.4871 29.5638 33.4871C29.5771 33.4468 29.5825 33.4044 29.5798 33.3621ZM26.0338 35.9621L21.6808 40.3131V33.7811H28.2008L26.0338 35.9621ZM6.35983 15.8621C6.28489 15.9366 6.18351 15.9784 6.07784 15.9784C5.97216 15.9784 5.87077 15.9366 5.79583 15.8621L4.39583 14.4841L4.95983 13.9121L6.07983 15.0121L9.50483 11.6121L10.0688 12.1841L6.35983 15.8621ZM10.0678 20.0771L6.35983 23.7601C6.28489 23.8346 6.18351 23.8764 6.07784 23.8764C5.97216 23.8764 5.87077 23.8346 5.79583 23.7601L4.39583 22.3821L4.95983 21.8101L6.07983 22.9101L9.50483 19.5101L10.0678 20.0771ZM4.67484 6.86109V6.05509H11.4448V6.86109H4.67484ZM26.5168 3.79809V4.60409H25.7108V5.41309H24.9028V4.60409H24.1028V3.79809H24.9028V2.99209H25.7088V3.79809H26.5168ZM25.6788 10.5761L24.9368 10.8901L23.6878 7.91309H21.4558L20.2028 10.8831L19.4608 10.5691L22.2008 4.04909C22.2324 3.97697 22.2843 3.91562 22.3502 3.87254C22.4161 3.82946 22.4931 3.80652 22.5718 3.80652C22.6506 3.80652 22.7276 3.82946 22.7935 3.87254C22.8594 3.91562 22.9113 3.97697 22.9428 4.04909L25.6788 10.5761ZM25.3078 12.7441V13.5501H11.4448V12.7441H25.3078ZM11.4448 21.4441V20.6431H25.3078V21.4491L11.4448 21.4441ZM25.3078 23.0561V23.8621H11.4448V23.0561H25.3078ZM11.4448 15.9691V15.1631H25.3078V15.9691H11.4448ZM18.2148 4.44309H4.67484V3.63709H18.2148V4.44309ZM11.4448 30.9601H18.3768V31.7661H11.4448V30.9601ZM11.4448 29.3481V28.5421H25.3078V29.3481H11.4448ZM4.94483 29.6951L6.06483 30.7951L9.48983 27.3951L10.0538 27.9671L6.34583 31.6501C6.27089 31.7246 6.16951 31.7664 6.06384 31.7664C5.95816 31.7664 5.85677 31.7246 5.78183 31.6501L4.38183 30.2721L4.94483 29.6951Z" fill="#943AE3"/>
</svg>
