<svg width="41" height="41" viewBox="0 0 41 41" fill="none" xmlns="http://www.w3.org/2000/svg">
<path d="M7.43018 33.615C7.43018 33.7639 7.48925 33.9067 7.59443 34.0121C7.69961 34.1174 7.84229 34.1767 7.99117 34.177H11.6042C11.753 34.1767 11.8957 34.1174 12.0009 34.0121C12.1061 33.9067 12.1652 33.7639 12.1652 33.615V30.562H7.43018V33.615Z" fill="#943AE3"/>
<path d="M11.6042 24.446H7.99117C7.84229 24.4463 7.69961 24.5056 7.59443 24.611C7.48925 24.7164 7.43018 24.8592 7.43018 25.0081V28.061H12.1652V25.0081C12.1652 24.8592 12.1061 24.7164 12.0009 24.611C11.8957 24.5056 11.753 24.4463 11.6042 24.446Z" fill="#943AE3"/>
<path d="M28.686 0.459961H1.39096C1.14341 0.461283 0.906469 0.560618 0.731987 0.736225C0.557504 0.911832 0.459693 1.14941 0.459961 1.39696V39.66C0.45983 39.7829 0.48391 39.9046 0.530827 40.0182C0.577744 40.1318 0.646579 40.2351 0.733402 40.3221C0.820225 40.4091 0.923335 40.4782 1.03685 40.5253C1.15036 40.5725 1.27204 40.5968 1.39496 40.597H28.686C28.8089 40.5968 28.9306 40.5725 29.0441 40.5253C29.1576 40.4782 29.2607 40.4091 29.3475 40.3221C29.4343 40.2351 29.5032 40.1318 29.5501 40.0182C29.597 39.9046 29.6211 39.7829 29.621 39.66V1.39696C29.6211 1.27404 29.597 1.1523 29.5501 1.03869C29.5032 0.925082 29.4343 0.821824 29.3475 0.734816C29.2607 0.647807 29.1576 0.578752 29.0441 0.531592C28.9306 0.484433 28.8089 0.460092 28.686 0.459961ZM14.657 33.615C14.6572 34.4255 14.3359 35.203 13.7635 35.7769C13.1912 36.3508 12.4145 36.6741 11.604 36.676H7.99096C7.18044 36.6741 6.40376 36.3508 5.83139 35.7769C5.25901 35.203 4.93769 34.4255 4.93796 33.615V25.015C4.9369 24.2039 5.25786 23.4256 5.83032 22.8511C6.40279 22.2766 7.17992 21.9528 7.99096 21.951H11.604C12.4145 21.9528 13.1912 22.2762 13.7635 22.85C14.3359 23.4239 14.6572 24.2014 14.657 25.012V33.615ZM23.891 19.06H6.18396C5.85244 19.06 5.5345 18.9283 5.30008 18.6938C5.06566 18.4594 4.93396 18.1415 4.93396 17.81C4.93396 17.4784 5.06566 17.1605 5.30008 16.9261C5.5345 16.6917 5.85244 16.56 6.18396 16.56H23.891C24.2225 16.56 24.5404 16.6917 24.7748 16.9261C25.0093 17.1605 25.141 17.4784 25.141 17.81C25.141 18.1415 25.0093 18.4594 24.7748 18.6938C24.5404 18.9283 24.2225 19.06 23.891 19.06ZM23.991 13.777H6.18396C5.85244 13.777 5.5345 13.6453 5.30008 13.4108C5.06566 13.1764 4.93396 12.8585 4.93396 12.527C4.93396 12.1954 5.06566 11.8775 5.30008 11.6431C5.5345 11.4087 5.85244 11.277 6.18396 11.277H23.991C24.3225 11.277 24.6404 11.4087 24.8748 11.6431C25.1093 11.8775 25.241 12.1954 25.241 12.527C25.241 12.8585 25.1093 13.1764 24.8748 13.4108C24.6404 13.6453 24.3225 13.777 23.991 13.777ZM23.991 8.49396H6.18396C5.85244 8.49396 5.5345 8.36226 5.30008 8.12784C5.06566 7.89342 4.93396 7.57548 4.93396 7.24396C4.93396 6.91244 5.06566 6.5945 5.30008 6.36008C5.5345 6.12566 5.85244 5.99396 6.18396 5.99396H23.991C24.3225 5.99396 24.6404 6.12566 24.8748 6.36008C25.1093 6.5945 25.241 6.91244 25.241 7.24396C25.241 7.57548 25.1093 7.89342 24.8748 8.12784C24.6404 8.36226 24.3225 8.49396 23.991 8.49396Z" fill="#943AE3"/>
<path d="M34.771 14.209H40.544V34.009H34.771V14.209Z" fill="#943AE3"/>
<path d="M34.795 36.492H40.519C40.5221 36.4919 40.5253 36.4924 40.5282 36.4935C40.5311 36.4946 40.5337 36.4963 40.536 36.4984C40.5382 36.5006 40.54 36.5031 40.5412 36.506C40.5424 36.5088 40.5431 36.5119 40.5431 36.515V39.63C40.5316 39.9074 40.4107 40.169 40.2067 40.3574C40.0028 40.5457 39.7325 40.6456 39.455 40.635H35.7121C35.4716 40.6442 35.2373 40.5577 35.0605 40.3944C34.8837 40.2312 34.7789 40.0045 34.769 39.764V36.514C34.7693 36.5109 34.7702 36.5078 34.7716 36.505C34.7731 36.5022 34.775 36.4997 34.7775 36.4976C34.7799 36.4956 34.7827 36.494 34.7857 36.4931C34.7887 36.4921 34.7919 36.4918 34.795 36.492Z" fill="#943AE3"/>
<path d="M37.118 5.35985L34.771 11.6798H40.543L38.089 5.35285C38.051 5.25449 37.984 5.17002 37.8969 5.1107C37.8097 5.05138 37.7065 5.02001 37.6011 5.02077C37.4956 5.02153 37.3929 5.05438 37.3066 5.11495C37.2203 5.17553 37.1546 5.26095 37.118 5.35985Z" fill="#943AE3"/>
</svg>
