<svg width="40" height="41" viewBox="0 0 40 41" fill="none" xmlns="http://www.w3.org/2000/svg">
<path d="M18.8571 13.5122C18.8572 13.3606 18.8274 13.2105 18.7695 13.0704C18.7115 12.9303 18.6265 12.8031 18.5194 12.6959C18.4122 12.5887 18.2849 12.5037 18.1448 12.4458C18.0048 12.3878 17.8546 12.3581 17.7031 12.3582H15.8731L18.5191 9.71219C18.6804 9.5508 18.7904 9.34518 18.8349 9.12132C18.8794 8.89747 18.8566 8.66543 18.7692 8.45457C18.6819 8.2437 18.534 8.06347 18.3442 7.93667C18.1544 7.80987 17.9313 7.74219 17.7031 7.74219H13.0891C12.783 7.74219 12.4895 7.86377 12.2731 8.08018C12.0566 8.2966 11.9351 8.59013 11.9351 8.89619C11.9351 9.20225 12.0566 9.49577 12.2731 9.71219C12.4895 9.92861 12.783 10.0502 13.0891 10.0502H14.9191L12.2731 12.6962C12.1117 12.8576 12.0018 13.0632 11.9572 13.2871C11.9127 13.5109 11.9356 13.7429 12.0229 13.9538C12.1102 14.1647 12.2582 14.3449 12.4479 14.4717C12.6377 14.5985 12.8608 14.6662 13.0891 14.6662H17.7041C17.8556 14.6662 18.0056 14.6363 18.1455 14.5783C18.2855 14.5203 18.4126 14.4353 18.5197 14.3281C18.6268 14.221 18.7117 14.0937 18.7696 13.9537C18.8275 13.8137 18.8572 13.6637 18.8571 13.5122Z" fill="#943AE3"/>
<path d="M21.2526 7.03107C21.3398 7.24199 21.4877 7.42228 21.6774 7.54904C21.8672 7.6758 22.0904 7.74333 22.3186 7.74307H26.9336C27.2397 7.74307 27.5332 7.62149 27.7496 7.40507C27.966 7.18865 28.0876 6.89513 28.0876 6.58907C28.0876 6.28301 27.966 5.98948 27.7496 5.77307C27.5332 5.55665 27.2397 5.43507 26.9336 5.43507H25.1036L27.7496 2.78907C27.9107 2.62763 28.0203 2.42209 28.0646 2.19841C28.1089 1.97472 28.086 1.74292 27.9987 1.53226C27.9114 1.3216 27.7636 1.14153 27.5741 1.01477C27.3845 0.888019 27.1616 0.820266 26.9336 0.820068H22.3186C22.0126 0.820068 21.719 0.94165 21.5026 1.15807C21.2862 1.37448 21.1646 1.66801 21.1646 1.97407C21.1646 2.28013 21.2862 2.57365 21.5026 2.79007C21.719 3.00649 22.0126 3.12807 22.3186 3.12807H24.1486L21.5026 5.77407C21.3411 5.93528 21.2312 6.14081 21.1867 6.36459C21.1422 6.58838 21.1651 6.82034 21.2526 7.03107Z" fill="#943AE3"/>
<path d="M36.2408 19.281H20.0108C19.0932 19.2821 18.2135 19.647 17.5647 20.2959C16.9158 20.9447 16.5509 21.8244 16.5498 22.742V27.357C16.5497 27.5086 16.5794 27.6587 16.6374 27.7988C16.6953 27.9389 16.7803 28.0661 16.8875 28.1733C16.9947 28.2805 17.122 28.3655 17.262 28.4234C17.4021 28.4814 17.5522 28.5111 17.7038 28.511H39.7038V22.742C39.7028 21.8241 39.3375 20.9441 38.6882 20.2952C38.0389 19.6463 37.1587 19.2815 36.2408 19.281Z" fill="#943AE3"/>
<path d="M14.2418 27.3582V26.2041H2.62782V13.5122C2.62782 13.3606 2.59798 13.2106 2.53998 13.0705C2.48199 12.9305 2.39698 12.8033 2.28983 12.6962C2.18267 12.589 2.05545 12.504 1.91544 12.446C1.77543 12.388 1.62537 12.3582 1.47382 12.3582C1.32228 12.3582 1.17222 12.388 1.03221 12.446C0.892198 12.504 0.764982 12.589 0.657823 12.6962C0.550664 12.8033 0.465661 12.9305 0.407667 13.0705C0.349673 13.2106 0.319824 13.3606 0.319824 13.5122L0.319824 39.0491C0.319824 39.2007 0.349673 39.3508 0.407667 39.4908C0.465661 39.6308 0.550664 39.758 0.657823 39.8652C0.764982 39.9723 0.892198 40.0573 1.03221 40.1153C1.17222 40.1733 1.32228 40.2032 1.47382 40.2032C1.62537 40.2032 1.77543 40.1733 1.91544 40.1153C2.05545 40.0573 2.18267 39.9723 2.28983 39.8652C2.39698 39.758 2.48199 39.6308 2.53998 39.4908C2.59798 39.3508 2.62782 39.2007 2.62782 39.0491V35.5112H37.3948V39.0491C37.3948 39.3552 37.5164 39.6487 37.7328 39.8652C37.9492 40.0816 38.2428 40.2032 38.5488 40.2032C38.8549 40.2032 39.1484 40.0816 39.3648 39.8652C39.5812 39.6487 39.7028 39.3552 39.7028 39.0491V30.8192H17.7028C17.2483 30.8192 16.7983 30.7296 16.3784 30.5557C15.9584 30.3818 15.5769 30.1268 15.2555 29.8055C14.9341 29.4841 14.6792 29.1025 14.5053 28.6826C14.3313 28.2627 14.2418 27.8127 14.2418 27.3582Z" fill="#943AE3"/>
<path d="M14.2428 20.4341C14.2428 21.1186 14.0398 21.7877 13.6596 22.3569C13.2793 22.926 12.7389 23.3696 12.1065 23.6316C11.4741 23.8936 10.7783 23.9622 10.107 23.8287C9.43562 23.6953 8.81893 23.3657 8.33486 22.8818C7.85079 22.3979 7.52108 21.7813 7.38743 21.11C7.25377 20.4387 7.32217 19.7428 7.58397 19.1104C7.84577 18.4779 8.28922 17.9373 8.85824 17.5569C9.42727 17.1765 10.0963 16.9733 10.7808 16.9731C11.2354 16.973 11.6856 17.0624 12.1056 17.2363C12.5256 17.4102 12.9073 17.6651 13.2287 17.9865C13.5502 18.3079 13.8053 18.6895 13.9793 19.1095C14.1532 19.5294 14.2428 19.9796 14.2428 20.4341Z" fill="#943AE3"/>
</svg>
