<svg width="48" height="41" viewBox="0 0 48 41" fill="none" xmlns="http://www.w3.org/2000/svg">
<path d="M10.8232 34.04H4.03125V8.84C4.03125 8.41565 4.19982 8.00868 4.49988 7.70862C4.79994 7.40856 5.2069 7.23999 5.63125 7.23999H10.8232V34.04Z" fill="#943AE3"/>
<path d="M18.8101 4.74506H12.9561V3.60407C12.9554 3.53389 12.9687 3.46428 12.9953 3.39931C13.0218 3.33434 13.0611 3.27532 13.1107 3.22569C13.1603 3.17607 13.2194 3.13683 13.2843 3.11028C13.3493 3.08373 13.4189 3.0704 13.4891 3.07107H18.2761C18.3463 3.0704 18.4159 3.08373 18.4808 3.11028C18.5458 3.13683 18.6048 3.17607 18.6545 3.22569C18.7041 3.27532 18.7433 3.33434 18.7699 3.39931C18.7964 3.46428 18.8097 3.53389 18.8091 3.60407L18.8101 4.74506Z" fill="#943AE3"/>
<path d="M12.9561 6.87817H18.8101V8.47816H12.9561V6.87817Z" fill="#943AE3"/>
<path d="M12.9561 10.5991V34.0451H18.8101V10.5991H12.9561ZM16.9441 32.4561H14.8121C14.5293 32.4561 14.2582 32.3438 14.0583 32.1439C13.8584 31.944 13.7461 31.6728 13.7461 31.3901C13.7461 31.1074 13.8584 30.8363 14.0583 30.6364C14.2582 30.4364 14.5293 30.3241 14.8121 30.3241H16.9441C17.2268 30.3241 17.4979 30.4364 17.6978 30.6364C17.8977 30.8363 18.0101 31.1074 18.0101 31.3901C18.0101 31.6728 17.8977 31.944 17.6978 32.1439C17.4979 32.3438 17.2268 32.4561 16.9441 32.4561Z" fill="#943AE3"/>
<path d="M26.7959 2.00508H20.9419V0.864083C20.9424 0.722885 20.9987 0.587622 21.0986 0.487779C21.1984 0.387936 21.3337 0.331605 21.4749 0.331079H26.2619C26.3321 0.330411 26.4017 0.343744 26.4666 0.370294C26.5316 0.396843 26.5906 0.436076 26.6403 0.485704C26.6899 0.535331 26.7291 0.594358 26.7557 0.659326C26.7822 0.724294 26.7956 0.793903 26.7949 0.864083L26.7959 2.00508Z" fill="#943AE3"/>
<path d="M20.9312 4.13696H26.7852V5.73696H20.9312V4.13696Z" fill="#943AE3"/>
<path d="M20.9312 7.85815V34.0441H26.7852V7.85815H20.9312ZM24.9312 32.4581H22.7991C22.5164 32.4581 22.2453 32.3458 22.0454 32.1459C21.8455 31.946 21.7332 31.6749 21.7332 31.3922C21.7332 31.1094 21.8455 30.8383 22.0454 30.6384C22.2453 30.4385 22.5164 30.3262 22.7991 30.3262H24.9312C25.2139 30.3262 25.485 30.4385 25.6849 30.6384C25.8848 30.8383 25.9971 31.1094 25.9971 31.3922C25.9971 31.6749 25.8848 31.946 25.6849 32.1459C25.485 32.3458 25.2139 32.4581 24.9312 32.4581Z" fill="#943AE3"/>
<path d="M19.6089 36.636V36.188H28.1279V36.636C28.1276 36.7998 28.0624 36.9569 27.9466 37.0727C27.8307 37.1885 27.6737 37.2537 27.5099 37.254H20.2279C20.0639 37.254 19.9066 37.1889 19.7905 37.073C19.6745 36.9572 19.6092 36.8 19.6089 36.636Z" fill="#943AE3"/>
<path d="M34.2801 11.9631L34.7602 12.9971L29.4502 15.4711L28.9701 14.4371C28.9403 14.3745 28.9233 14.3065 28.92 14.2371C28.9168 14.1678 28.9274 14.0985 28.9512 14.0334C28.975 13.9682 29.0116 13.9084 29.0588 13.8576C29.106 13.8067 29.1629 13.7657 29.2262 13.7371L33.5662 11.7111C33.6297 11.6803 33.6988 11.6625 33.7693 11.6587C33.8398 11.6549 33.9104 11.6653 33.9769 11.6891C34.0434 11.713 34.1045 11.7498 34.1565 11.7976C34.2086 11.8453 34.2506 11.9029 34.2801 11.9671V11.9631Z" fill="#943AE3"/>
<path d="M35.762 34.045H28.917V19.374L35.762 34.045Z" fill="#943AE3"/>
<path d="M30.3423 17.3911L35.6466 14.9146L36.3235 16.3644L31.0192 18.8409L30.3423 17.3911Z" fill="#943AE3"/>
<path d="M43.2788 31.2721L37.2338 18.3071L31.9238 20.7811L37.9688 33.7461C37.9978 33.8091 38.0389 33.8657 38.0898 33.9127C38.1407 33.9597 38.2004 33.9961 38.2655 34.0199C38.3306 34.0437 38.3997 34.0544 38.4689 34.0513C38.5382 34.0483 38.6061 34.0316 38.6688 34.0021L43.0078 31.9761C43.0756 31.9525 43.1375 31.9145 43.1891 31.8645C43.2407 31.8146 43.2808 31.754 43.3066 31.687C43.3324 31.62 43.3433 31.5481 43.3385 31.4765C43.3337 31.4048 43.3133 31.3351 43.2788 31.2721ZM41.1468 31.1121L39.2168 32.0121C38.9609 32.1323 38.6677 32.1458 38.4018 32.0498C38.1359 31.9538 37.919 31.7561 37.7988 31.5001C37.6787 31.2442 37.6651 30.951 37.7611 30.6851C37.8572 30.4192 38.0549 30.2023 38.3108 30.0821L40.2408 29.1821C40.497 29.0636 40.7895 29.0509 41.055 29.1467C41.3205 29.2426 41.5375 29.4393 41.6588 29.6941C41.7193 29.8207 41.754 29.958 41.7609 30.0981C41.7679 30.2382 41.7469 30.3782 41.6993 30.5102C41.6516 30.6421 41.5783 30.7632 41.4834 30.8666C41.3886 30.9699 41.2742 31.0534 41.1468 31.1121Z" fill="#943AE3"/>
<path d="M32.67 9.77798L28.917 11.527V7.23999H42.095C42.3051 7.23999 42.5132 7.28138 42.7073 7.36179C42.9014 7.44219 43.0778 7.56004 43.2264 7.70862C43.375 7.85719 43.4928 8.03357 43.5732 8.22769C43.6536 8.42181 43.695 8.62988 43.695 8.84V27.126L36.21 11.069C35.9106 10.4294 35.37 9.93444 34.7066 9.69249C34.0431 9.45053 33.3109 9.48128 32.67 9.77798Z" fill="#943AE3"/>
<path d="M47.3311 37.254C46.1471 38.512 44.7511 39.9411 44.1861 40.4631C44.1765 40.4734 44.1649 40.4815 44.152 40.487C44.139 40.4926 44.1251 40.4953 44.1111 40.495H3.61606C3.58799 40.4939 3.56132 40.4825 3.54106 40.4631C2.97606 39.9411 1.57906 38.522 0.396062 37.254C0.267556 36.9344 0.260089 36.5788 0.375062 36.254C0.380731 36.232 0.393721 36.2126 0.411897 36.199C0.430074 36.1854 0.452352 36.1783 0.475061 36.1791H17.4771V36.637C17.4771 37.3667 17.7669 38.0664 18.2828 38.5823C18.7987 39.0982 19.4985 39.3881 20.2281 39.3881H27.5101C28.2397 39.3881 28.9394 39.0982 29.4553 38.5823C29.9712 38.0664 30.2611 37.3667 30.2611 36.637V36.1771H47.2671C47.2898 36.1763 47.312 36.1834 47.3302 36.197C47.3484 36.2106 47.3614 36.2301 47.3671 36.2521C47.4611 36.5815 47.4485 36.9322 47.3311 37.254Z" fill="#943AE3"/>
</svg>
