<svg width="30" height="43" viewBox="0 0 30 43" fill="none" xmlns="http://www.w3.org/2000/svg">
<path d="M27.1029 0.211914H2.73886C2.08057 0.212708 1.44947 0.474564 0.983994 0.940045C0.518513 1.40553 0.256653 2.03663 0.255859 2.69491V40.1119C0.256653 40.7702 0.518513 41.4013 0.983994 41.8668C1.44947 42.3323 2.08057 42.5941 2.73886 42.5949C20.3759 42.5949 19.3389 42.5949 19.4689 42.5859V34.4659C19.4697 33.8153 19.7285 33.1916 20.1885 32.7316C20.6485 32.2715 21.2723 32.0127 21.9229 32.0119H29.5859V2.69491C29.5851 2.03663 29.3232 1.40553 28.8577 0.940045C28.3922 0.474564 27.7611 0.212708 27.1029 0.211914ZM13.6789 4.83391C13.688 4.51075 13.8229 4.20389 14.0547 3.97855C14.2865 3.75322 14.5971 3.62715 14.9204 3.62715C15.2437 3.62715 15.5542 3.75322 15.786 3.97855C16.0179 4.20389 16.1527 4.51075 16.1619 4.83391V15.4339C16.1527 15.7571 16.0179 16.0639 15.786 16.2893C15.5542 16.5146 15.2437 16.6407 14.9204 16.6407C14.5971 16.6407 14.2865 16.5146 14.0547 16.2893C13.8229 16.0639 13.688 15.7571 13.6789 15.4339V4.83391ZM13.6789 20.3959C13.688 20.0727 13.8229 19.7659 14.0547 19.5406C14.2865 19.3152 14.5971 19.1892 14.9204 19.1892C15.2437 19.1892 15.5542 19.3152 15.786 19.5406C16.0179 19.7659 16.1527 20.0727 16.1619 20.3959V20.5649C16.1527 20.8881 16.0179 21.1949 15.786 21.4203C15.5542 21.6456 15.2437 21.7717 14.9204 21.7717C14.5971 21.7717 14.2865 21.6456 14.0547 21.4203C13.8229 21.1949 13.688 20.8881 13.6789 20.5649V20.3959ZM13.3849 34.4959H4.66886C4.34569 34.4867 4.03884 34.3519 3.8135 34.1201C3.58816 33.8883 3.4621 33.5777 3.4621 33.2544C3.4621 32.9311 3.58816 32.6206 3.8135 32.3887C4.03884 32.1569 4.34569 32.0221 4.66886 32.0129H13.3849C13.5509 32.0082 13.7161 32.0368 13.8709 32.0971C14.0256 32.1574 14.1667 32.2481 14.2858 32.3638C14.4049 32.4796 14.4995 32.618 14.5642 32.771C14.6288 32.924 14.6621 33.0883 14.6621 33.2544C14.6621 33.4205 14.6288 33.5849 14.5642 33.7378C14.4995 33.8908 14.4049 34.0293 14.2858 34.145C14.1667 34.2608 14.0256 34.3515 13.8709 34.4117C13.7161 34.472 13.5509 34.5006 13.3849 34.4959ZM25.1719 28.3299H4.67186C4.34869 28.3207 4.04184 28.1859 3.8165 27.9541C3.59116 27.7223 3.4651 27.4117 3.4651 27.0884C3.4651 26.7651 3.59116 26.4546 3.8165 26.2227C4.04184 25.9909 4.34869 25.8561 4.67186 25.8469H25.1719C25.495 25.8561 25.8019 25.9909 26.0272 26.2227C26.2526 26.4546 26.3786 26.7651 26.3786 27.0884C26.3786 27.4117 26.2526 27.7223 26.0272 27.9541C25.8019 28.1859 25.495 28.3207 25.1719 28.3299Z" fill="#943AE3"/>
<path d="M21.9526 42.5919L29.5856 34.4919H21.9526V42.5919Z" fill="#943AE3"/>
</svg>
