<svg width="23" height="23" viewBox="0 0 23 23" fill="none" xmlns="http://www.w3.org/2000/svg">
<g id="notification-bell">
<g id="Group 559">
<path id="Path 1596" d="M11.453 22.3799C10.4171 22.3786 9.42391 21.9664 8.69147 21.2338C7.95902 20.5011 7.54708 19.5079 7.54602 18.4719C7.54602 18.3571 7.56863 18.2435 7.61255 18.1375C7.65647 18.0314 7.72084 17.935 7.802 17.8539C7.88316 17.7727 7.97952 17.7084 8.08556 17.6644C8.19159 17.6205 8.30524 17.5979 8.42001 17.5979H14.487C14.6018 17.5979 14.7154 17.6205 14.8215 17.6644C14.9275 17.7084 15.0239 17.7727 15.105 17.8539C15.1862 17.935 15.2506 18.0314 15.2945 18.1375C15.3384 18.2435 15.361 18.3571 15.361 18.4719C15.36 19.508 14.9479 20.5014 14.2152 21.2341C13.4826 21.9668 12.4892 22.3789 11.453 22.3799ZM9.47803 19.3459C9.64728 19.7287 9.92407 20.054 10.2748 20.2824C10.6255 20.5108 11.035 20.6324 11.4535 20.6324C11.872 20.6324 12.2816 20.5108 12.6323 20.2824C12.983 20.054 13.2598 19.7287 13.429 19.3459H9.47803Z" fill="#8489AB"/>
</g>
<g id="Group 560">
<path id="Path 1597" d="M21.3331 19.346H1.57408C1.34228 19.346 1.11997 19.2539 0.956065 19.09C0.792158 18.9261 0.700076 18.7038 0.700076 18.472C0.699137 17.5489 0.971206 16.6462 1.48206 15.8773C1.99291 15.1084 2.71973 14.5078 3.57108 14.151V8.07002C3.57108 6.00133 4.39286 4.01737 5.85565 2.55459C7.31843 1.0918 9.30239 0.27002 11.3711 0.27002H11.5351C13.6025 0.276025 15.5842 1.09708 17.0501 2.55502C17.7768 3.27766 18.3529 4.13728 18.7452 5.08411C19.1374 6.03094 19.3379 7.04617 19.3351 8.07102V14.152C20.1788 14.5056 20.9003 15.0986 21.4106 15.8579C21.9209 16.6171 22.1974 17.5093 22.2061 18.424C22.2061 18.44 22.2061 18.456 22.2061 18.473C22.2061 18.7048 22.114 18.9271 21.9501 19.091C21.7862 19.2549 21.5639 19.347 21.3321 19.347L21.3331 19.346ZM2.58008 17.599H20.3271C20.1785 17.1194 19.9092 16.6859 19.545 16.3403C19.1807 15.9946 18.7338 15.7483 18.2471 15.625C18.0587 15.5772 17.8916 15.468 17.7723 15.3146C17.6529 15.1612 17.5881 14.9724 17.5881 14.778V8.07002C17.5902 7.27482 17.4346 6.48708 17.1303 5.75241C16.826 5.01775 16.3789 4.35075 15.8151 3.79002C14.6779 2.65754 13.1399 2.01935 11.5351 2.01402H11.3711C10.5757 2.01362 9.78801 2.17 9.05308 2.4742C8.31815 2.7784 7.65039 3.22447 7.08796 3.7869C6.52553 4.34933 6.07946 5.0171 5.77526 5.75202C5.47105 6.48695 5.31468 7.27462 5.31508 8.07002V14.778C5.31505 14.9724 5.25023 15.1612 5.13088 15.3146C5.01153 15.468 4.84446 15.5772 4.65608 15.625C4.17001 15.7488 3.72387 15.9954 3.36038 16.341C2.99689 16.6866 2.72821 17.1198 2.58008 17.599Z" fill="#8489AB"/>
</g>
</g>
</svg>
