<svg width="38" height="35" viewBox="0 0 38 35" fill="none" xmlns="http://www.w3.org/2000/svg">
<path d="M34.2779 0.558105H3.58889C2.72143 0.559164 1.8898 0.904231 1.27641 1.51762C0.663021 2.13101 0.317953 2.96264 0.316895 3.83011L0.316895 25.7921C0.317953 26.6596 0.663021 27.4912 1.27641 28.1046C1.8898 28.718 2.72143 29.063 3.58889 29.0641H13.4069V31.2461H24.3879V29.0651H34.2779C35.1454 29.064 35.977 28.719 36.5904 28.1056C37.2038 27.4922 37.5488 26.6606 37.5499 25.7931V3.83011C37.5488 2.96264 37.2038 2.13101 36.5904 1.51762C35.977 0.904231 35.1454 0.559164 34.2779 0.558105ZM13.0869 19.9461L8.72389 24.3091C8.62267 24.4104 8.50248 24.4907 8.37018 24.5456C8.23789 24.6004 8.0961 24.6286 7.95289 24.6286C7.80969 24.6286 7.6679 24.6004 7.5356 24.5456C7.40331 24.4907 7.28312 24.4104 7.18189 24.3091L4.99989 22.1271C4.89287 22.0272 4.80706 21.9067 4.74756 21.7729C4.68807 21.6392 4.65612 21.4948 4.65361 21.3484C4.6511 21.202 4.67808 21.0566 4.73295 20.9208C4.78782 20.7851 4.86946 20.6617 4.97299 20.5582C5.07653 20.4547 5.19984 20.373 5.33559 20.3182C5.47134 20.2633 5.61675 20.2363 5.76315 20.2388C5.90955 20.2413 6.05395 20.2733 6.18774 20.3328C6.32152 20.3923 6.44197 20.4781 6.54189 20.5851L7.95189 21.9951L11.5439 18.4031C11.6438 18.2961 11.7643 18.2103 11.8981 18.1508C12.0318 18.0913 12.1762 18.0593 12.3226 18.0568C12.469 18.0543 12.6144 18.0813 12.7502 18.1362C12.8859 18.191 13.0093 18.2727 13.1128 18.3762C13.2163 18.4797 13.298 18.6031 13.3528 18.7388C13.4077 18.8746 13.4347 19.02 13.4322 19.1664C13.4297 19.3128 13.3977 19.4572 13.3382 19.5909C13.2787 19.7247 13.1929 19.8452 13.0859 19.9451L13.0869 19.9461ZM13.0869 13.4011L8.72389 17.7641C8.62267 17.8654 8.50248 17.9457 8.37018 18.0006C8.23789 18.0554 8.0961 18.0836 7.95289 18.0836C7.80969 18.0836 7.6679 18.0554 7.5356 18.0006C7.40331 17.9457 7.28312 17.8654 7.18189 17.7641L4.99989 15.5831C4.89287 15.4832 4.80706 15.3627 4.74756 15.2289C4.68807 15.0952 4.65612 14.9508 4.65361 14.8044C4.6511 14.658 4.67808 14.5126 4.73295 14.3768C4.78782 14.2411 4.86946 14.1177 4.97299 14.0142C5.07653 13.9107 5.19984 13.829 5.33559 13.7742C5.47134 13.7193 5.61675 13.6923 5.76315 13.6948C5.90955 13.6973 6.05395 13.7293 6.18774 13.7888C6.32152 13.8483 6.44197 13.9341 6.54189 14.0411L7.95189 15.4511L11.5449 11.8581C11.7517 11.6651 12.0253 11.5599 12.3082 11.5647C12.591 11.5696 12.8609 11.6841 13.0609 11.8841C13.2609 12.0841 13.3754 12.354 13.3803 12.6368C13.3851 12.9197 13.2799 13.1933 13.0869 13.4001V13.4011ZM13.0869 6.85611L8.72389 11.2191C8.62267 11.3204 8.50248 11.4008 8.37018 11.4556C8.23789 11.5104 8.0961 11.5386 7.95289 11.5386C7.80969 11.5386 7.6679 11.5104 7.5356 11.4556C7.40331 11.4008 7.28312 11.3204 7.18189 11.2191L4.99989 9.03811C4.80298 8.83206 4.6945 8.55714 4.69768 8.27214C4.70087 7.98715 4.81544 7.71471 5.01691 7.51311C5.21838 7.31151 5.49074 7.19676 5.77573 7.19339C6.06073 7.19003 6.33572 7.29832 6.54189 7.49511L7.95189 8.90511L11.5439 5.31311C11.7488 5.10849 12.0265 4.99365 12.3161 4.99383C12.6057 4.99402 12.8833 5.10923 13.0879 5.31411C13.2925 5.51899 13.4074 5.79676 13.4072 6.08631C13.407 6.37587 13.2918 6.65349 13.0869 6.85811V6.85611ZM32.0959 22.4471H16.6789C16.3895 22.4471 16.112 22.3322 15.9074 22.1276C15.7028 21.923 15.5879 21.6455 15.5879 21.3561C15.5879 21.0668 15.7028 20.7893 15.9074 20.5847C16.112 20.3801 16.3895 20.2651 16.6789 20.2651H32.0959C32.3852 20.2651 32.6627 20.3801 32.8673 20.5847C33.0719 20.7893 33.1869 21.0668 33.1869 21.3561C33.1869 21.6455 33.0719 21.923 32.8673 22.1276C32.6627 22.3322 32.3852 22.4471 32.0959 22.4471ZM32.0959 15.9021H16.6789C16.3895 15.9021 16.112 15.7872 15.9074 15.5826C15.7028 15.378 15.5879 15.1005 15.5879 14.8111C15.5879 14.5218 15.7028 14.2443 15.9074 14.0397C16.112 13.835 16.3895 13.7201 16.6789 13.7201H32.0959C32.3852 13.7201 32.6627 13.835 32.8673 14.0397C33.0719 14.2443 33.1869 14.5218 33.1869 14.8111C33.1869 15.1005 33.0719 15.378 32.8673 15.5826C32.6627 15.7872 32.3852 15.9021 32.0959 15.9021ZM32.0959 9.35711H16.6789C16.5356 9.35711 16.3938 9.32889 16.2614 9.27406C16.129 9.21923 16.0087 9.13887 15.9074 9.03756C15.8061 8.93625 15.7258 8.81598 15.6709 8.68361C15.6161 8.55125 15.5879 8.40938 15.5879 8.26611C15.5879 8.12283 15.6161 7.98096 15.6709 7.8486C15.7258 7.71623 15.8061 7.59596 15.9074 7.49465C16.0087 7.39334 16.129 7.31298 16.2614 7.25815C16.3938 7.20333 16.5356 7.17511 16.6789 7.17511H32.0959C32.3852 7.17511 32.6627 7.29005 32.8673 7.49465C33.0719 7.69925 33.1869 7.97675 33.1869 8.26611C33.1869 8.55546 33.0719 8.83296 32.8673 9.03756C32.6627 9.24216 32.3852 9.35711 32.0959 9.35711Z" fill="#943AE3"/>
<path d="M25.3729 30.6821H12.4949C11.5192 30.6829 10.5836 31.0709 9.89367 31.7609C9.20371 32.4508 8.81574 33.3864 8.81494 34.3621H29.0529C29.0521 33.3864 28.6642 32.4508 27.9742 31.7609C27.2843 31.0709 26.3487 30.6829 25.3729 30.6821Z" fill="#943AE3"/>
</svg>
