<svg width="47" height="47" viewBox="0 0 47 47" fill="none" xmlns="http://www.w3.org/2000/svg">
<path d="M46.014 23.007C45.992 22.136 45.721 21.2894 45.2332 20.5675C44.7453 19.8455 44.061 19.2784 43.261 18.933C41.8047 18.4185 40.5871 17.3887 39.838 16.038C39.4153 14.5509 39.549 12.9607 40.214 11.565C40.5348 10.7544 40.617 9.86895 40.451 9.01314C40.2849 8.15733 39.8776 7.36687 39.277 6.735C38.6451 6.13446 37.8546 5.72724 36.9987 5.56139C36.1429 5.39554 35.2575 5.47799 34.447 5.799C33.0533 6.46356 31.4653 6.59758 29.98 6.176C28.6305 5.42496 27.6012 4.20758 27.085 2.752C26.7383 1.95227 26.1702 1.26831 25.4477 0.780732C24.7252 0.29315 23.8784 0.0222646 23.007 0C22.1356 0.0222646 21.2888 0.29315 20.5663 0.780732C19.8438 1.26831 19.2757 1.95227 18.929 2.752C18.4125 4.2074 17.3833 5.42468 16.034 6.176C14.5482 6.59821 12.9594 6.46454 11.565 5.8C10.7545 5.47911 9.8691 5.39673 9.0133 5.56257C8.15749 5.72842 7.36697 6.13557 6.735 6.736C6.13446 7.36791 5.72724 8.15843 5.56139 9.01426C5.39554 9.87009 5.47799 10.7555 5.799 11.566C6.46367 12.9612 6.5963 14.551 6.172 16.037C5.42418 17.3887 4.20776 18.4202 2.752 18.937C1.95276 19.2821 1.26895 19.8487 0.781306 20.5699C0.293667 21.2911 0.0225624 22.1367 0 23.007C0.0222646 23.8784 0.29315 24.7252 0.780732 25.4477C1.26831 26.1702 1.95227 26.7383 2.752 27.085C4.20757 27.603 5.42425 28.6341 6.174 29.985C6.59715 31.4689 6.46417 33.0562 5.8 34.449C5.47911 35.2595 5.39673 36.1449 5.56257 37.0007C5.72842 37.8565 6.13557 38.647 6.736 39.279C7.36804 39.8793 8.15855 40.2864 9.01433 40.4522C9.87011 40.6181 10.7555 40.5358 11.566 40.215C12.96 39.5502 14.5485 39.4165 16.034 39.839C17.3827 40.5919 18.4117 41.8096 18.929 43.265C19.2765 44.0638 19.8449 44.7468 20.5673 45.2336C21.2897 45.7205 22.1361 45.9908 23.007 46.013C23.8779 45.9908 24.7243 45.7205 25.4467 45.2336C26.1691 44.7468 26.7375 44.0638 27.085 43.265C27.6021 41.8101 28.6302 40.5926 29.978 39.839C31.4637 39.4155 33.0529 39.5492 34.447 40.215C35.2536 40.5563 36.1437 40.6491 37.0034 40.4815C37.863 40.3139 38.6531 39.8936 39.2725 39.2743C39.8918 38.6551 40.3123 37.865 40.48 37.0054C40.6478 36.1458 40.5551 35.2557 40.214 34.449C39.5491 33.0551 39.4148 31.4668 39.836 29.981C40.5874 28.6314 41.8051 27.6022 43.261 27.086C44.0609 26.7391 44.7449 26.1708 45.2327 25.4482C45.7204 24.7255 45.9915 23.8786 46.014 23.007ZM23.007 31.449C21.338 31.4498 19.7062 30.9555 18.3181 30.0288C16.9301 29.102 15.8481 27.7844 15.209 26.2425C14.5699 24.7007 14.4025 23.004 14.7279 21.367C15.0533 19.73 15.857 18.2263 17.0371 17.0461C18.2173 15.866 19.721 15.0623 21.358 14.7369C22.995 14.4115 24.6917 14.5789 26.2335 15.218C27.7754 15.8571 29.093 16.9391 30.0198 18.3271C30.9465 19.7152 31.4408 21.347 31.44 23.016C31.44 25.2526 30.5515 27.3975 28.97 28.979C27.3885 30.5605 25.2436 31.449 23.007 31.449Z" fill="#943AE3"/>
</svg>
