<svg width="43" height="43" viewBox="0 0 43 43" fill="none" xmlns="http://www.w3.org/2000/svg">
<path d="M34.5139 28.2461L10.8639 24.0761C10.6696 24.049 10.4724 24.0985 10.3138 24.2141C10.1553 24.3297 10.048 24.5024 10.0145 24.6958C9.98098 24.8891 10.024 25.0879 10.1343 25.2501C10.2447 25.4123 10.4138 25.5253 10.6059 25.5651L34.4379 29.7651C34.8794 29.8426 35.2981 30.0173 35.6638 30.2764C36.0295 30.5356 36.3331 30.8728 36.5525 31.2636C36.7719 31.6544 36.9018 32.0891 36.9326 32.5363C36.9635 32.9834 36.8946 33.4319 36.7309 33.8491C36.4623 34.5083 35.9734 35.0539 35.3477 35.393C34.7219 35.7322 33.9979 35.8439 33.2989 35.7091L9.54895 31.5251C9.50537 31.5174 9.46121 31.5134 9.41695 31.5131C9.22854 31.5144 9.04739 31.586 8.90899 31.7138C8.7706 31.8417 8.68494 32.0166 8.6688 32.2043C8.65265 32.392 8.70719 32.579 8.82172 32.7286C8.93625 32.8783 9.10252 32.9797 9.28795 33.0131L33.1219 37.2131C33.7587 37.3245 34.4119 37.2988 35.0379 37.1377C35.6639 36.9766 36.2484 36.6837 36.7522 36.2787C37.256 35.8737 37.6676 35.3659 37.9595 34.7891C38.2514 34.2123 38.4169 33.5799 38.4449 32.9341C38.4692 31.8089 38.0842 30.7132 37.3613 29.8506C36.6385 28.9879 35.627 28.4171 34.5149 28.2441L34.5139 28.2461Z" fill="#943AE3"/>
<path d="M7.77077 37.2901C7.65798 37.4871 7.59096 37.707 7.57469 37.9334C7.55842 38.1598 7.59331 38.387 7.67677 38.5981C7.82344 38.9281 8.07794 39.1984 8.39848 39.3646C8.71901 39.5309 9.08655 39.5832 9.44077 39.5131L23.4318 37.0451L14.7048 35.5061L8.82577 36.5481C8.60594 36.5859 8.39726 36.6721 8.21481 36.8004C8.03236 36.9288 7.88069 37.096 7.77077 37.2901Z" fill="#943AE3"/>
<path d="M7.18493 31.873C7.26399 31.411 7.48599 30.9855 7.81967 30.6563C8.15335 30.3271 8.58188 30.1108 9.04493 30.038L9.61793 26.786C9.21137 26.556 8.88572 26.2061 8.68544 25.784C8.48517 25.362 8.42003 24.8885 8.49893 24.428L11.3129 8.46704L4.27293 9.70804C3.66719 9.79153 3.08453 9.99636 2.5598 10.3103C2.03507 10.6242 1.57906 11.0407 1.21906 11.535C0.859065 12.0292 0.602475 12.591 0.464648 13.1868C0.326821 13.7825 0.310591 14.3999 0.416927 15.002L3.92993 34.931C4.68109 33.7274 5.81788 32.8137 7.15493 32.339C7.14909 32.1831 7.15914 32.027 7.18493 31.873Z" fill="#943AE3"/>
<path d="M9.70306 41.0011C9.51684 41.0338 9.32813 41.0502 9.13906 41.0501C8.37825 41.065 7.63989 40.792 7.07173 40.2858C6.50358 39.7796 6.14754 39.0775 6.07486 38.32C6.00218 37.5626 6.21823 36.8056 6.67978 36.2006C7.14132 35.5956 7.8143 35.1872 8.56406 35.0571L10.3641 34.7381L9.02706 34.5021C8.51912 34.4105 8.05826 34.1467 7.72206 33.7551C6.78277 34.0588 5.96663 34.6576 5.3951 35.4625C4.82356 36.2673 4.52718 37.2352 4.55006 38.2221C4.57563 38.8697 4.74077 39.5041 5.03417 40.0819C5.32758 40.6597 5.74233 41.1674 6.25006 41.5701C6.75364 41.9737 7.3373 42.2654 7.96229 42.4261C8.58728 42.5868 9.23929 42.6127 9.87506 42.5021L32.1411 38.5741L27.7911 37.8091L9.70306 41.0011Z" fill="#943AE3"/>
<path d="M35.3137 33.308C35.3971 33.0991 35.4328 32.8743 35.4183 32.6498C35.4038 32.4254 35.3394 32.207 35.2298 32.0106C35.1202 31.8142 34.9682 31.6448 34.7848 31.5146C34.6014 31.3844 34.3913 31.2967 34.1697 31.258L11.0827 27.187L10.5537 30.166L33.5537 34.221C33.9071 34.2911 34.2739 34.2388 34.5937 34.0729C34.9135 33.907 35.1674 33.6373 35.3137 33.308Z" fill="#943AE3"/>
<path d="M14.7617 19.3889L30.4027 22.1459L31.7147 14.6979L16.0747 11.9409L14.7617 19.3889Z" fill="#943AE3"/>
<path d="M38.8969 4.46401L38.2169 8.32801C38.1861 8.50302 38.0947 8.66158 37.9586 8.77587C37.8226 8.89016 37.6506 8.95288 37.4729 8.95301C37.4287 8.9531 37.3845 8.94942 37.3409 8.94201C37.2431 8.92475 37.1497 8.88839 37.066 8.83502C36.9823 8.78166 36.9099 8.71232 36.853 8.63098C36.7961 8.54963 36.7557 8.45787 36.7343 8.36093C36.7128 8.264 36.7106 8.16378 36.7279 8.06601L37.4139 4.18201L15.0659 0.244014C14.9701 0.22562 14.8715 0.227044 14.7762 0.248198C14.6809 0.269351 14.591 0.309787 14.5119 0.367014C14.4277 0.422488 14.3558 0.494558 14.3004 0.578811C14.245 0.663065 14.2074 0.75773 14.1899 0.857014L10.3579 22.591C10.6121 22.5476 10.8718 22.5476 11.1259 22.591L33.4679 26.528L35.9229 12.593C35.939 12.4942 35.9745 12.3996 36.0275 12.3146C36.0804 12.2297 36.1497 12.1561 36.2313 12.0981C36.3129 12.0401 36.4052 11.999 36.5028 11.9769C36.6005 11.9549 36.7015 11.9525 36.8001 11.9699C36.8987 11.9872 36.9928 12.024 37.0771 12.078C37.1614 12.132 37.2341 12.2022 37.291 12.2846C37.3479 12.3669 37.3879 12.4597 37.4087 12.5577C37.4294 12.6556 37.4305 12.7567 37.4119 12.855L34.9579 26.796C35.8 26.966 36.5986 27.3057 37.3051 27.7945C38.0116 28.2833 38.611 28.9109 39.0669 29.639L42.5789 9.70201C42.6129 9.50355 42.6346 9.30316 42.6439 9.10201C42.6687 8.01023 42.306 6.94495 41.6201 6.09518C40.9341 5.24541 39.9694 4.66609 38.8969 4.46001V4.46401ZM33.2049 14.964L31.8909 22.412C31.8291 22.7618 31.6461 23.0787 31.374 23.3071C31.102 23.5355 30.7581 23.6608 30.4029 23.661C30.3151 23.6612 30.2274 23.6535 30.1409 23.638L14.4989 20.874C14.3033 20.8395 14.1164 20.7667 13.9488 20.6599C13.7813 20.5531 13.6365 20.4144 13.5226 20.2516C13.4088 20.0888 13.3281 19.9051 13.2853 19.7111C13.2424 19.5172 13.2382 19.3166 13.2729 19.121L14.5869 11.674C14.6567 11.2793 14.8803 10.9284 15.2086 10.6986C15.537 10.4687 15.9432 10.3785 16.3379 10.448L31.9779 13.206C32.3728 13.2755 32.7239 13.4991 32.954 13.8274C33.1841 14.1558 33.2744 14.5621 33.2049 14.957V14.964ZM18.3579 7.73501C18.3752 7.63724 18.4115 7.54383 18.4649 7.46011C18.5183 7.37639 18.5876 7.304 18.6689 7.24708C18.7503 7.19016 18.8421 7.14982 18.939 7.12836C19.0359 7.1069 19.1361 7.10474 19.2339 7.12201L30.4009 9.08701C30.5865 9.12047 30.7529 9.22208 30.8674 9.3719C30.9819 9.52172 31.0363 9.70893 31.0199 9.89679C31.0035 10.0847 30.9175 10.2596 30.7787 10.3873C30.64 10.515 30.4585 10.5862 30.2699 10.587C30.2256 10.5871 30.1814 10.5831 30.1379 10.575L18.9659 8.61001C18.8681 8.59275 18.7747 8.55639 18.691 8.50303C18.6073 8.44966 18.5349 8.38032 18.478 8.29898C18.4211 8.21763 18.3807 8.12587 18.3593 8.02893C18.3378 7.932 18.3356 7.83178 18.3529 7.73401L18.3579 7.73501ZM33.9109 7.39401C33.8667 7.39409 33.8225 7.39041 33.7789 7.38301L16.6489 4.36301C16.4619 4.31781 16.2992 4.20301 16.1939 4.04199C16.0885 3.88098 16.0486 3.68588 16.0821 3.49643C16.1156 3.30698 16.2201 3.13744 16.3743 3.02235C16.5285 2.90726 16.7207 2.85529 16.9119 2.87701L34.0359 5.89201C34.2214 5.92545 34.3877 6.02698 34.5023 6.1767C34.6168 6.32641 34.6713 6.51351 34.655 6.7013C34.6387 6.88909 34.5529 7.06403 34.4143 7.19181C34.2757 7.31959 34.0944 7.39099 33.9059 7.39201L33.9109 7.39401Z" fill="#943AE3"/>
</svg>
