<svg width="43" height="42" viewBox="0 0 43 42" fill="none" xmlns="http://www.w3.org/2000/svg">
<path d="M11.8022 9.22506V6.45805C11.8032 6.36654 11.7859 6.27576 11.7516 6.19094C11.7172 6.10612 11.6664 6.02893 11.6021 5.96385C11.5378 5.89877 11.4612 5.84708 11.3767 5.81176C11.2923 5.77644 11.2017 5.75818 11.1102 5.75806H1.41423C1.32263 5.75805 1.23194 5.77621 1.1474 5.81147C1.06286 5.84673 0.986154 5.89841 0.92171 5.9635C0.857267 6.0286 0.806368 6.10582 0.771955 6.1907C0.737543 6.27559 0.720302 6.36646 0.721227 6.45805V9.22806L11.8022 9.22506Z" fill="#943AE3"/>
<path d="M0.721191 10.606V33.461H11.8022V10.606H0.721191ZM9.03219 19.606H3.49119C3.3074 19.606 3.13113 19.5329 3.00117 19.403C2.8712 19.273 2.79819 19.0968 2.79819 18.913V13.372C2.79819 13.1882 2.8712 13.0119 3.00117 12.8819C3.13113 12.752 3.3074 12.679 3.49119 12.679H9.03219C9.21599 12.679 9.39225 12.752 9.52222 12.8819C9.65218 13.0119 9.72519 13.1882 9.72519 13.372V18.913C9.72625 19.0046 9.70911 19.0956 9.67475 19.1806C9.6404 19.2656 9.58952 19.343 9.52507 19.4082C9.46061 19.4734 9.38386 19.5251 9.29925 19.5605C9.21465 19.5958 9.12387 19.614 9.03219 19.614V19.606Z" fill="#943AE3"/>
<path d="M0.721191 37.6169V41.08C0.721191 41.2638 0.794204 41.44 0.924166 41.57C1.05413 41.6999 1.2304 41.7729 1.41419 41.7729H11.1142C11.298 41.7729 11.4743 41.6999 11.6042 41.57C11.7342 41.44 11.8072 41.2638 11.8072 41.08V37.6169H0.721191Z" fill="#943AE3"/>
<path d="M0.721191 34.8459H11.8022V36.231H0.721191V34.8459Z" fill="#943AE3"/>
<path d="M13.188 34.8459H22.188V36.231H13.188V34.8459Z" fill="#943AE3"/>
<path d="M22.188 2.99104V0.917041C22.1889 0.825783 22.1718 0.735242 22.1377 0.650615C22.1035 0.565988 22.053 0.488942 21.9889 0.423901C21.9249 0.358859 21.8487 0.307104 21.7646 0.271605C21.6805 0.236106 21.5903 0.217563 21.499 0.217041L13.881 0.217041C13.7894 0.217036 13.6987 0.235191 13.6142 0.270454C13.5297 0.305717 13.453 0.35739 13.3885 0.422485C13.3241 0.487579 13.2732 0.564803 13.2388 0.649691C13.2043 0.73458 13.1871 0.825448 13.188 0.917041V2.99104H22.188Z" fill="#943AE3"/>
<path d="M13.188 7.83594H22.188V33.4659H13.188V7.83594Z" fill="#943AE3"/>
<path d="M13.188 37.6169V41.08C13.188 41.2638 13.261 41.44 13.391 41.57C13.5209 41.6999 13.6972 41.7729 13.881 41.7729H21.499C21.59 41.7729 21.6801 41.755 21.7642 41.7202C21.8483 41.6854 21.9247 41.6343 21.989 41.57C22.0534 41.5056 22.1044 41.4292 22.1392 41.3452C22.1741 41.2611 22.192 41.171 22.192 41.08V37.6169H13.188Z" fill="#943AE3"/>
<path d="M13.188 4.37305H22.188V6.45105H13.188V4.37305Z" fill="#943AE3"/>
<path d="M23.5601 14.5631L23.9311 15.9861L35.6601 12.8581L35.2891 11.4351L23.5601 14.5631Z" fill="#943AE3"/>
<path d="M29.347 36.7501L41.076 33.6221L40.333 30.7751L28.603 33.9031L29.347 36.7501Z" fill="#943AE3"/>
<path d="M39.9843 29.435L36.0093 14.198L24.2793 17.326L28.2543 32.563L39.9843 29.435Z" fill="#943AE3"/>
<path d="M23.2101 13.223L34.9391 10.096L33.945 6.28201C33.8962 6.10408 33.7798 5.95225 33.6207 5.85886C33.4615 5.76547 33.2722 5.73789 33.0931 5.78201L22.7011 8.55501C22.525 8.6038 22.375 8.71949 22.2831 8.87737C22.1911 9.03525 22.1646 9.22281 22.2091 9.40001L23.2101 13.223Z" fill="#943AE3"/>
<path d="M41.4272 34.9619L29.6973 38.0899L30.5233 41.2559C30.547 41.3445 30.588 41.4274 30.6439 41.5C30.6999 41.5726 30.7697 41.6334 30.8492 41.6789C30.9533 41.7433 31.0729 41.7779 31.1953 41.7789C31.2559 41.7788 31.3162 41.7717 31.3752 41.7579L41.7643 38.9879C41.9403 38.9391 42.0903 38.8234 42.1823 38.6656C42.2742 38.5077 42.3007 38.3201 42.2563 38.1429L41.4272 34.9619Z" fill="#943AE3"/>
</svg>
