<svg width="38" height="44" viewBox="0 0 38 44" fill="none" xmlns="http://www.w3.org/2000/svg">
<path d="M18.986 12.5039C22.245 12.5039 24.887 9.86194 24.887 6.6029C24.887 3.34387 22.245 0.701904 18.986 0.701904C15.7269 0.701904 13.085 3.34387 13.085 6.6029C13.085 9.86194 15.7269 12.5039 18.986 12.5039Z" fill="#943AE3"/>
<path d="M37.6008 22.627H29.9928L27.7068 14.272L21.2668 13.391L19.0888 16.001L16.8358 13.386L10.2758 14.224L7.83981 22.624H0.382812V27.454H3.39681V43.954H34.5868V27.454H37.6008V22.624V22.627ZM26.4508 22.627H25.2188L25.0798 17.727L26.4508 22.627ZM12.4938 17.954V22.627H11.1188L12.4938 17.954Z" fill="#943AE3"/>
</svg>
