<svg width="43" height="42" viewBox="0 0 43 42" fill="none" xmlns="http://www.w3.org/2000/svg">
<path d="M22.7392 17.5379V12.2169C23.4594 11.9682 24.0841 11.5011 24.5263 10.8807C24.9685 10.2602 25.2061 9.51728 25.2061 8.75538C25.2061 7.99347 24.9685 7.25054 24.5263 6.63008C24.0841 6.00962 23.4594 5.54253 22.7392 5.29388V1.32688C22.7392 0.998408 22.6088 0.683391 22.3765 0.451127C22.1442 0.218863 21.8292 0.0883789 21.5007 0.0883789C21.1723 0.0883789 20.8572 0.218863 20.625 0.451127C20.3927 0.683391 20.2622 0.998408 20.2622 1.32688V5.29088C19.5399 5.53822 18.913 6.00514 18.4691 6.62633C18.0253 7.24751 17.7866 7.9919 17.7866 8.75538C17.7866 9.51886 18.0253 10.2632 18.4691 10.8844C18.913 11.5056 19.5399 11.9725 20.2622 12.2199V17.5379C19.541 17.7859 18.9152 18.2529 18.4722 18.8737C18.0291 19.4945 17.791 20.2382 17.791 21.0009C17.791 21.7636 18.0291 22.5072 18.4722 23.1281C18.9152 23.7489 19.541 24.2159 20.2622 24.4639V29.7829C19.541 30.0309 18.9152 30.4979 18.4722 31.1187C18.0291 31.7395 17.791 32.4832 17.791 33.2459C17.791 34.0086 18.0291 34.7522 18.4722 35.3731C18.9152 35.9939 19.541 36.4609 20.2622 36.7089V40.6749C20.2622 41.0034 20.3927 41.3184 20.625 41.5506C20.8572 41.7829 21.1723 41.9134 21.5007 41.9134C21.8292 41.9134 22.1442 41.7829 22.3765 41.5506C22.6088 41.3184 22.7392 41.0034 22.7392 40.6749V36.7089C23.4605 36.4609 24.0863 35.9939 24.5293 35.3731C24.9724 34.7522 25.2105 34.0086 25.2105 33.2459C25.2105 32.4832 24.9724 31.7395 24.5293 31.1187C24.0863 30.4979 23.4605 30.0309 22.7392 29.7829V24.4639C23.4605 24.2159 24.0863 23.7489 24.5293 23.1281C24.9724 22.5072 25.2105 21.7636 25.2105 21.0009C25.2105 20.2382 24.9724 19.4945 24.5293 18.8737C24.0863 18.2529 23.4605 17.7859 22.7392 17.5379ZM20.2582 8.75588C20.2557 8.51049 20.3261 8.26987 20.4605 8.06458C20.595 7.85929 20.7874 7.69859 21.0134 7.60289C21.2394 7.50719 21.4887 7.48081 21.7297 7.5271C21.9707 7.57339 22.1925 7.69026 22.3669 7.86287C22.5414 8.03548 22.6606 8.25604 22.7094 8.49654C22.7582 8.73703 22.7345 8.98662 22.6412 9.21359C22.5479 9.44056 22.3892 9.63468 22.1854 9.7713C21.9815 9.90792 21.7417 9.98087 21.4962 9.98088C21.1696 9.98221 20.8557 9.85385 20.6236 9.62399C20.3915 9.39412 20.2601 9.08154 20.2582 8.75488V8.75588ZM21.5002 34.4709C21.2585 34.4683 21.023 34.3943 20.8232 34.2581C20.6235 34.122 20.4685 33.9298 20.3778 33.7057C20.2871 33.4817 20.2647 33.2358 20.3134 32.999C20.3621 32.7623 20.4798 32.5452 20.6516 32.3752C20.8235 32.2052 21.0417 32.0898 21.279 32.0436C21.5163 31.9973 21.7619 32.0223 21.985 32.1154C22.2081 32.2085 22.3986 32.3655 22.5327 32.5667C22.6667 32.7678 22.7382 33.0042 22.7383 33.2459C22.7359 33.5722 22.6042 33.8843 22.3722 34.1137C22.1401 34.3431 21.8266 34.4722 21.5002 34.4709ZM21.5002 22.2259C21.2585 22.2233 21.023 22.1493 20.8232 22.0131C20.6235 21.877 20.4685 21.6848 20.3778 21.4607C20.2871 21.2367 20.2647 20.9908 20.3134 20.754C20.3621 20.5173 20.4798 20.3002 20.6516 20.1302C20.8235 19.9602 21.0417 19.8448 21.279 19.7986C21.5163 19.7523 21.7619 19.7773 21.985 19.8704C22.2081 19.9635 22.3986 20.1205 22.5327 20.3217C22.6667 20.5228 22.7382 20.7592 22.7383 21.0009C22.7359 21.3272 22.6042 21.6393 22.3722 21.8687C22.1401 22.0981 21.8266 22.2262 21.5002 22.2249V22.2259Z" fill="#943AE3"/>
<path d="M15.5441 18.0118V13.5698C15.5441 13.4069 15.5119 13.2456 15.4494 13.0951C15.387 12.9446 15.2954 12.808 15.18 12.693C15.0647 12.578 14.9277 12.4869 14.777 12.4249C14.6264 12.3629 14.465 12.3313 14.3021 12.3318H1.84005C1.51171 12.3318 1.19682 12.4622 0.964653 12.6944C0.732483 12.9266 0.602051 13.2415 0.602051 13.5698L0.602051 28.4318C0.602051 28.7601 0.732483 29.075 0.964653 29.3072C1.19682 29.5394 1.51171 29.6698 1.84005 29.6698H14.3021C14.6304 29.6698 14.9453 29.5394 15.1774 29.3072C15.4096 29.075 15.5401 28.7601 15.5401 28.4318V23.9898L17.6471 21.8758C17.8784 21.6437 18.0083 21.3294 18.0083 21.0018C18.0083 20.6741 17.8784 20.3599 17.6471 20.1278L15.5441 18.0118ZM11.7841 24.7118H4.35405C4.02558 24.7118 3.71056 24.5813 3.4783 24.3491C3.24604 24.1168 3.11555 23.8018 3.11555 23.4733C3.11555 23.1448 3.24604 22.8298 3.4783 22.5975C3.71056 22.3653 4.02558 22.2348 4.35405 22.2348H11.7841C12.1125 22.2348 12.4275 22.3653 12.6598 22.5975C12.8921 22.8298 13.0226 23.1448 13.0226 23.4733C13.0226 23.8018 12.8921 24.1168 12.6598 24.3491C12.4275 24.5813 12.1125 24.7118 11.7841 24.7118ZM11.8331 19.7588H4.40205C4.07358 19.7588 3.75856 19.6283 3.5263 19.396C3.29404 19.1638 3.16355 18.8488 3.16355 18.5203C3.16355 18.1918 3.29404 17.8768 3.5263 17.6445C3.75856 17.4123 4.07358 17.2818 4.40205 17.2818H11.8321C12.1605 17.2818 12.4755 17.4123 12.7078 17.6445C12.9401 17.8768 13.0706 18.1918 13.0706 18.5203C13.0706 18.8488 12.9401 19.1638 12.7078 19.396C12.4755 19.6283 12.1605 19.7588 11.8321 19.7588H11.8331Z" fill="#943AE3"/>
<path d="M41.161 0.101807H28.695C28.3666 0.101807 28.0518 0.232238 27.8196 0.464408C27.5874 0.696579 27.457 1.01147 27.457 1.33981V5.78181L25.35 7.89581C25.1187 8.12786 24.9888 8.44215 24.9888 8.76981C24.9888 9.09746 25.1187 9.41175 25.35 9.64381L27.457 11.7578V16.2018C27.457 16.5301 27.5874 16.845 27.8196 17.0772C28.0518 17.3094 28.3666 17.4398 28.695 17.4398H41.161C41.4893 17.4398 41.8042 17.3094 42.0364 17.0772C42.2685 16.845 42.399 16.5301 42.399 16.2018V1.33981C42.399 1.01147 42.2685 0.696579 42.0364 0.464408C41.8042 0.232238 41.4893 0.101807 41.161 0.101807ZM31.168 5.13781H38.598C38.9264 5.13781 39.2415 5.26829 39.4737 5.50056C39.706 5.73282 39.8365 6.04784 39.8365 6.37631C39.8365 6.70478 39.706 7.01979 39.4737 7.25206C39.2415 7.48432 38.9264 7.61481 38.598 7.61481H31.168C30.8395 7.61481 30.5245 7.48432 30.2922 7.25206C30.0599 7.01979 29.9295 6.70478 29.9295 6.37631C29.9295 6.04784 30.0599 5.73282 30.2922 5.50056C30.5245 5.26829 30.8395 5.13781 31.168 5.13781ZM38.602 12.5678H31.172C30.8435 12.5678 30.5285 12.4373 30.2962 12.2051C30.0639 11.9728 29.9335 11.6578 29.9335 11.3293C29.9335 11.0008 30.0639 10.6858 30.2962 10.4536C30.5285 10.2213 30.8435 10.0908 31.172 10.0908H38.602C38.9304 10.0908 39.2455 10.2213 39.4777 10.4536C39.71 10.6858 39.8405 11.0008 39.8405 11.3293C39.8405 11.6578 39.71 11.9728 39.4777 12.2051C39.2455 12.4373 38.9304 12.5678 38.602 12.5678Z" fill="#943AE3"/>
<path d="M41.161 24.48H28.695C28.3666 24.48 28.0518 24.6104 27.8196 24.8426C27.5874 25.0748 27.457 25.3896 27.457 25.718V30.16L25.35 32.274C25.1187 32.506 24.9888 32.8203 24.9888 33.148C24.9888 33.4756 25.1187 33.7899 25.35 34.022L27.457 36.136V40.66C27.457 40.9883 27.5874 41.3032 27.8196 41.5354C28.0518 41.7675 28.3666 41.898 28.695 41.898H41.161C41.4893 41.898 41.8042 41.7675 42.0364 41.5354C42.2685 41.3032 42.399 40.9883 42.399 40.66V25.718C42.399 25.3896 42.2685 25.0748 42.0364 24.8426C41.8042 24.6104 41.4893 24.48 41.161 24.48ZM38.602 36.904H31.172C30.8435 36.904 30.5285 36.7735 30.2962 36.5412C30.0639 36.309 29.9335 35.9939 29.9335 35.6655C29.9335 35.337 30.0639 35.022 30.2962 34.7897C30.5285 34.5575 30.8435 34.427 31.172 34.427H38.602C38.9304 34.427 39.2455 34.5575 39.4777 34.7897C39.71 35.022 39.8405 35.337 39.8405 35.6655C39.8405 35.9939 39.71 36.309 39.4777 36.5412C39.2455 36.7735 38.9304 36.904 38.602 36.904ZM38.602 31.909H31.172C30.8435 31.909 30.5285 31.7785 30.2962 31.5462C30.0639 31.314 29.9335 30.9989 29.9335 30.6705C29.9335 30.342 30.0639 30.027 30.2962 29.7947C30.5285 29.5625 30.8435 29.432 31.172 29.432H38.602C38.9304 29.432 39.2455 29.5625 39.4777 29.7947C39.71 30.027 39.8405 30.342 39.8405 30.6705C39.8405 30.9989 39.71 31.314 39.4777 31.5462C39.2455 31.7785 38.9304 31.909 38.602 31.909Z" fill="#943AE3"/>
</svg>
