<svg width="38" height="42" viewBox="0 0 38 42" fill="none" xmlns="http://www.w3.org/2000/svg">
<path d="M35.6949 10.3719C35.3619 7.11793 34.8319 4.58393 33.9949 3.58793C30.5349 -0.507074 6.30688 -0.806074 3.55588 3.58793C2.88288 4.66493 2.41088 7.18793 2.09388 10.3769C1.59425 10.4343 1.13307 10.6731 0.79793 11.0481C0.462786 11.423 0.27701 11.908 0.275879 12.4109V16.3969C0.276517 16.8169 0.405889 17.2266 0.646558 17.5708C0.887228 17.915 1.22763 18.1772 1.62188 18.3219C1.43588 24.6009 1.58688 31.1509 1.86488 34.4089C1.86488 36.9239 3.55388 36.5089 3.55388 36.5089H5.13888V39.2239C5.21712 39.8071 5.51961 40.3368 5.98212 40.7005C6.44462 41.0643 7.0307 41.2334 7.61588 41.1719C8.20138 41.2339 8.78797 41.0651 9.25092 40.7013C9.71386 40.3375 10.0166 39.8075 10.0949 39.2239V36.5039H28.5179V39.2189C28.5959 39.8024 28.8984 40.3324 29.3612 40.6962C29.824 41.06 30.4105 41.2289 30.9959 41.1669C31.5811 41.2284 32.1671 41.0593 32.6296 40.6955C33.0921 40.3318 33.3946 39.8021 33.4729 39.2189V36.5039H33.9929C33.9929 36.5039 35.9809 36.7769 36.1089 35.5919C36.1089 32.3429 36.3089 25.1429 36.1449 18.3469C36.5623 18.2181 36.9275 17.959 37.187 17.6075C37.4465 17.2561 37.5867 16.8308 37.5869 16.3939V12.4109C37.5859 11.8954 37.3906 11.3991 37.0399 11.0212C36.6892 10.6433 36.2089 10.4114 35.6949 10.3719ZM9.47288 4.17193H28.0729V6.98693H9.47288V4.17193ZM9.73888 33.3039C9.21603 33.3037 8.70498 33.1485 8.27033 32.8579C7.83568 32.5673 7.49694 32.1544 7.29695 31.6713C7.09696 31.1882 7.04468 30.6567 7.14673 30.1439C7.24878 29.6311 7.50058 29.16 7.87029 28.7903C8.24 28.4206 8.71102 28.1688 9.22381 28.0668C9.73661 27.9647 10.2681 28.017 10.7512 28.217C11.2343 28.417 11.6473 28.7557 11.9379 29.1904C12.2285 29.625 12.3837 30.1361 12.3839 30.6589C12.384 31.0063 12.3157 31.3503 12.1828 31.6713C12.0499 31.9922 11.8551 32.2839 11.6095 32.5295C11.3638 32.7752 11.0722 32.97 10.7512 33.1029C10.4303 33.2357 10.0863 33.3041 9.73888 33.3039ZM27.9769 33.3039C27.454 33.3039 26.9428 33.1489 26.5081 32.8584C26.0733 32.5679 25.7344 32.155 25.5342 31.672C25.3341 31.1889 25.2817 30.6573 25.3836 30.1445C25.4855 29.6316 25.7373 29.1605 26.1069 28.7907C26.4766 28.4209 26.9476 28.169 27.4604 28.0669C27.9733 27.9647 28.5049 28.0169 28.988 28.2169C29.4711 28.4169 29.8842 28.7556 30.1748 29.1903C30.4654 29.6249 30.6207 30.136 30.6209 30.6589C30.6206 31.3602 30.342 32.0326 29.8462 32.5286C29.3505 33.0245 28.6781 33.3034 27.9769 33.3039ZM31.3389 21.7299H6.21088V8.54793H31.3389V21.7299Z" fill="#943AE3"/>
</svg>
