<svg width="251" height="239" viewBox="0 0 251 239" fill="none" xmlns="http://www.w3.org/2000/svg">
<g filter="url(#filter0_d_1_6717)">
<path d="M125.5 223C187.632 223 238 220.09 238 216.5C238 212.91 187.632 210 125.5 210C63.368 210 13 212.91 13 216.5C13 220.09 63.368 223 125.5 223Z" fill="white"/>
</g>
<path d="M135.926 174.006L162.911 184.844L196.311 101.667L173.501 92.5061C172.393 92.0616 171.154 92.0753 170.057 92.5442C168.96 93.013 168.093 93.8986 167.649 95.0061L135.926 174.006Z" fill="#F4A640"/>
<path d="M132.752 170.911L184.421 180.071L197.3 107.423L145.631 98.2628L132.752 170.911Z" fill="#ADCFD8"/>
<path d="M158.588 108.531L181.663 112.622L181.754 112.104L158.68 108.014L158.588 108.531Z" fill="#55769F"/>
<path d="M153.975 106.359L186.743 112.168L186.834 111.65L154.066 105.841L153.975 106.359Z" fill="#55769F"/>
<path d="M149.283 112.492L189.039 119.54L189.13 119.022L149.375 111.974L149.283 112.492Z" fill="#55769F"/>
<path d="M148.843 114.983L188.598 122.031L188.689 121.513L148.934 114.466L148.843 114.983Z" fill="#55769F"/>
<path d="M147.959 119.966L187.714 127.014L187.806 126.496L148.051 119.448L147.959 119.966Z" fill="#55769F"/>
<path d="M147.518 122.458L187.273 129.506L187.365 128.988L147.61 121.94L147.518 122.458Z" fill="#55769F"/>
<path d="M147.075 124.949L186.831 131.997L186.922 131.479L147.167 124.431L147.075 124.949Z" fill="#55769F"/>
<path d="M145.133 135.907L184.888 142.955L184.98 142.437L145.224 135.389L145.133 135.907Z" fill="#55769F"/>
<path d="M144.66 138.473L184.43 145.539L184.522 145.021L144.752 137.955L144.66 138.473Z" fill="#55769F"/>
<path d="M144.217 141.074L183.972 148.122L184.063 147.604L144.308 140.556L144.217 141.074Z" fill="#55769F"/>
<path d="M143.759 143.658L183.514 150.706L183.605 150.188L143.85 143.14L143.759 143.658Z" fill="#55769F"/>
<path d="M143.301 146.241L183.056 153.289L183.147 152.771L143.392 145.723L143.301 146.241Z" fill="#55769F"/>
<path d="M142.843 148.825L182.598 155.873L182.689 155.355L142.934 148.307L142.843 148.825Z" fill="#55769F"/>
<path d="M142.385 151.408L182.14 158.456L182.231 157.938L142.476 150.89L142.385 151.408Z" fill="#55769F"/>
<path d="M134.302 167.774L185.045 181.155L203.86 109.809L153.116 96.4277L134.302 167.774Z" fill="#DAEEF7"/>
<path d="M165.153 107.731L187.813 113.707L187.948 113.198L165.287 107.223L165.153 107.731Z" fill="#55769F"/>
<path d="M160.73 105.201L192.914 113.67L193.047 113.161L160.864 104.692L160.73 105.201Z" fill="#55769F"/>
<path d="M155.557 110.909L194.6 121.205L194.734 120.696L155.691 110.401L155.557 110.909Z" fill="#55769F"/>
<path d="M154.91 113.377L193.956 123.652L194.089 123.143L155.044 112.868L154.91 113.377Z" fill="#55769F"/>
<path d="M153.622 118.271L192.667 128.546L192.801 128.037L153.756 117.762L153.622 118.271Z" fill="#55769F"/>
<path d="M152.978 120.718L192.023 130.993L192.157 130.484L153.112 120.209L152.978 120.718Z" fill="#55769F"/>
<path d="M152.334 123.165L191.379 133.44L191.513 132.932L152.468 122.656L152.334 123.165Z" fill="#55769F"/>
<path d="M149.502 133.928L188.547 144.203L188.681 143.694L149.636 133.419L149.502 133.928Z" fill="#55769F"/>
<path d="M148.837 136.444L187.879 146.74L188.014 146.231L148.971 135.936L148.837 136.444Z" fill="#55769F"/>
<path d="M148.169 138.981L187.211 149.277L187.346 148.768L148.303 138.473L148.169 138.981Z" fill="#55769F"/>
<path d="M147.499 141.54L186.544 151.815L186.678 151.307L147.633 141.031L147.499 141.54Z" fill="#55769F"/>
<path d="M146.831 144.077L185.876 154.352L186.01 153.843L146.965 143.568L146.831 144.077Z" fill="#55769F"/>
<path d="M146.166 146.595L185.208 156.89L185.343 156.381L146.3 146.086L146.166 146.595Z" fill="#55769F"/>
<path d="M145.498 149.131L184.541 159.427L184.675 158.918L145.632 148.623L145.498 149.131Z" fill="#55769F"/>
<path d="M146.165 178.118L200.493 199.936L232.18 121.036L186.528 92.8741C185.925 92.5022 185.249 92.2665 184.545 92.1836C183.842 92.1006 183.129 92.1724 182.456 92.3939C181.783 92.6154 181.167 92.9812 180.651 93.4658C180.134 93.9503 179.73 94.5419 179.466 95.1992L146.165 178.118Z" fill="#FEB546"/>
<path d="M211.55 169.839L221.393 166.956C223.126 159.793 224.166 153.692 224.166 153.692C212.289 154.171 203.149 157.806 196.119 162.973L194.665 174.673L191.525 166.829C174.925 182.657 172.986 207.091 172.986 207.091C172.986 207.091 206.392 194.02 212.759 188.634C215.217 186.554 217.478 180.871 219.327 174.678C216.007 172.884 211.55 169.839 211.55 169.839Z" fill="#FF5B7E"/>
<path d="M224.17 153.691C224.17 153.691 185.077 184.356 172.99 207.091C172.99 207.091 206.396 194.02 212.763 188.634C215.221 186.554 217.482 180.871 219.331 174.678C216.008 172.889 211.554 169.841 211.554 169.841L221.397 166.958C223.13 159.792 224.17 153.691 224.17 153.691Z" fill="#E03268"/>
<path d="M230.883 183.788C224.562 181.935 217.923 181.431 211.395 182.308C210.272 184.89 208.862 187.95 208.862 187.95L207.285 183.05C184.726 188.126 170.344 208.102 170.344 208.102C185.473 212.708 197.094 211.942 205.913 208.75C205.973 206.868 206.021 204.072 206.021 204.072L208.704 207.622C212.511 205.909 216.029 203.615 219.132 200.822C217.723 198.985 216.188 196.865 216.188 196.865L221.736 198.28C225.712 194.101 228.821 189.176 230.883 183.788Z" fill="#FF5B7E"/>
<path d="M205.914 208.747C205.974 206.865 206.022 204.069 206.022 204.069L208.705 207.619C212.512 205.906 216.03 203.612 219.133 200.819C217.724 198.982 216.189 196.862 216.189 196.862L221.737 198.277C225.713 194.098 228.822 189.171 230.883 183.783C204.102 187.883 170.345 208.096 170.345 208.096C185.474 212.708 197.095 211.941 205.914 208.747Z" fill="#E03268"/>
<path d="M60.2052 123.95H56.4902C57.1398 123.512 57.9067 123.28 58.6902 123.286H151.761C156.63 123.286 160.578 126.786 160.578 131.101V136.062C160.578 140.378 156.63 143.877 151.761 143.877L59.7312 143.849L60.2052 123.95Z" fill="#E03268"/>
<path d="M152.77 136.062V131.098C152.77 126.782 148.823 123.283 143.953 123.283H145.953C150.822 123.283 154.77 126.783 154.77 131.098V136.062C154.77 140.378 150.823 143.877 145.953 143.877H143.981C148.834 143.868 152.77 140.374 152.77 136.062Z" fill="#FEB546"/>
<path d="M130.972 136.062V131.098C130.972 126.782 127.024 123.283 122.155 123.283H124.155C129.025 123.283 132.972 126.783 132.972 131.098V136.062C132.972 140.378 129.024 143.877 124.155 143.877H122.183C127.036 143.868 130.972 140.374 130.972 136.062Z" fill="#FEB546"/>
<path d="M113.044 123.304C117.701 123.304 121.476 126.65 121.476 130.778V136.388C121.476 140.516 117.701 143.862 113.044 143.862H55.105V142.607H55.344L70.073 141.37L73.05 131.017C73.05 131.017 67.304 125.296 66.929 125.148C66.554 125 55.343 124.548 55.343 124.548H55.104V123.3L113.044 123.304Z" fill="#FF5B7E"/>
<path d="M58.863 133.547C58.863 127.494 55.334 124.559 55.334 124.559H111.853C116.13 124.559 119.598 127.633 119.598 131.424V135.742C119.598 139.533 116.131 142.607 111.853 142.607H55.334C55.334 142.607 58.863 141.168 58.863 133.547Z" fill="#DAEEF7"/>
<g style="mix-blend-mode:multiply">
<path d="M119.602 131.424V135.742C119.602 136.298 119.526 136.852 119.376 137.388C117.47 133.253 113.816 129.271 106.861 127.988C90.622 124.998 55.334 124.555 55.334 124.555H111.853C116.135 124.559 119.602 127.633 119.602 131.424Z" fill="#DAEEF7"/>
</g>
<path d="M61.7381 165.117H57.5381C58.2533 164.576 59.1261 164.284 60.0231 164.285H165.356C167.977 164.259 170.5 165.275 172.372 167.11C174.243 168.945 175.309 171.448 175.335 174.068V180.282C175.309 182.903 174.243 185.406 172.372 187.24C170.5 189.075 167.977 190.091 165.356 190.065L61.1961 190.03L61.7381 165.117Z" fill="#07085B"/>
<path d="M121.541 164.308C124.047 164.284 126.46 165.255 128.25 167.01C130.039 168.765 131.059 171.158 131.084 173.664V180.686C131.059 183.192 130.039 185.585 128.25 187.34C126.46 189.094 124.047 190.066 121.541 190.041H55.961V188.47H56.232L72.903 186.923L76.272 173.964C76.272 173.964 69.772 166.803 69.344 166.618C68.916 166.433 56.231 165.873 56.231 165.873H55.96V164.311L121.541 164.308Z" fill="#55769F"/>
<path d="M60.2181 177.129C60.2181 169.552 56.2241 165.879 56.2241 165.879H120.197C122.499 165.857 124.715 166.75 126.359 168.361C128.003 169.972 128.939 172.171 128.962 174.472V179.878C128.939 182.18 128.003 184.378 126.359 185.99C124.715 187.601 122.499 188.494 120.197 188.471H56.2241C56.2241 188.471 60.2181 186.669 60.2181 177.129Z" fill="#DAEEF7"/>
<g style="mix-blend-mode:multiply">
<path d="M128.963 174.472V179.878C128.963 180.573 128.877 181.265 128.707 181.939C127.558 178.925 125.65 176.259 123.168 174.199C120.687 172.138 117.716 170.753 114.542 170.176C96.1631 166.434 56.2241 165.876 56.2241 165.876H120.197C121.337 165.865 122.468 166.078 123.526 166.504C124.583 166.93 125.547 167.56 126.361 168.359C127.175 169.157 127.823 170.108 128.27 171.157C128.716 172.206 128.952 173.332 128.963 174.472Z" fill="#DAEEF7"/>
</g>
<path d="M178.807 144.493H183.014C182.26 144.053 181.401 143.825 180.528 143.833H75.148C69.635 143.833 65.165 147.308 65.165 151.595V156.526C65.165 160.813 69.635 164.288 75.148 164.288L179.348 164.261L178.807 144.493Z" fill="#02CCC0"/>
<path d="M118.981 143.847C113.708 143.847 109.434 147.17 109.434 151.27V156.842C109.434 160.942 113.708 164.265 118.981 164.265H184.581V163.018H184.31L167.633 161.79L164.262 151.507C164.262 151.507 170.768 145.825 171.192 145.679C171.616 145.533 184.31 145.088 184.31 145.088H184.581V143.848L118.981 143.847Z" fill="#06BFAD"/>
<path d="M180.327 154.02C180.285 152.328 180.622 150.648 181.314 149.103C182.006 147.559 183.036 146.189 184.327 145.094H120.327C115.484 145.094 111.558 148.147 111.558 151.913V156.202C111.558 159.968 115.484 163.02 120.327 163.02H184.327C184.327 163.02 180.327 161.592 180.327 154.02Z" fill="#DAEEF7"/>
<g style="mix-blend-mode:multiply">
<path d="M111.555 151.913V156.202C111.556 156.757 111.642 157.308 111.811 157.837C113.97 153.73 118.111 149.775 125.981 148.503C144.368 145.534 184.322 145.094 184.322 145.094H120.322C115.481 145.092 111.555 148.147 111.555 151.913Z" fill="#DAEEF7"/>
</g>
<path opacity="0.5" d="M84.4719 156.522V151.593C84.4719 147.306 88.9409 143.831 94.4549 143.831H84.4459C78.9329 143.831 74.4629 147.306 74.4629 151.593V156.524C74.4629 160.811 78.9329 164.287 84.4459 164.287H94.3199C88.8719 164.226 84.4719 160.774 84.4719 156.522Z" fill="#55769F"/>
<path d="M185.749 190.854H191.022C190.059 190.358 188.989 190.105 187.906 190.117H55.7938C48.8818 190.117 43.2788 194 43.2788 198.79V204.299C43.2788 209.089 48.8788 212.972 55.7938 212.972L186.428 212.941L185.749 190.854Z" fill="#FEB546"/>
<path d="M110.746 190.137C104.136 190.137 98.7769 193.85 98.7769 198.431V204.657C98.7769 209.238 104.136 212.951 110.746 212.951H192.989V211.558H192.649L171.741 210.186L167.515 198.697C167.515 198.697 175.671 192.348 176.203 192.185C176.735 192.022 192.648 191.525 192.648 191.525H192.988V190.14L110.746 190.137Z" fill="#F4A640"/>
<path d="M187.655 201.503C187.645 199.563 188.093 197.649 188.963 195.916C189.834 194.182 191.102 192.68 192.664 191.53H112.43C106.359 191.53 101.437 194.941 101.437 199.148V203.94C101.437 208.147 106.359 211.558 112.43 211.558H192.663C192.663 211.558 187.655 209.961 187.655 201.503Z" fill="#DAEEF7"/>
<g style="mix-blend-mode:multiply">
<path d="M101.437 199.148V203.94C101.438 204.563 101.547 205.181 101.758 205.767C104.464 201.179 109.65 196.76 119.523 195.339C142.573 192.021 192.664 191.53 192.664 191.53H112.43C106.359 191.53 101.437 194.941 101.437 199.148Z" fill="#DAEEF7"/>
</g>
<path d="M220.119 215.336L28.9979 215.336C28.6634 215.336 28.3427 215.203 28.1062 214.967C27.8697 214.73 27.7369 214.409 27.7369 214.075C27.7369 213.74 27.8697 213.42 28.1062 213.183C28.3427 212.947 28.6634 212.814 28.9979 212.814L220.119 212.814C220.453 212.814 220.774 212.947 221.011 213.183C221.247 213.42 221.38 213.74 221.38 214.075C221.38 214.409 221.247 214.73 221.011 214.967C220.774 215.203 220.453 215.336 220.119 215.336Z" fill="#C4DFE8"/>
<path d="M222.555 129.748L185.567 108.592L180.567 118.492L218.414 138.515L222.555 129.748Z" fill="#F4A640"/>
<path d="M192.158 53.2839C192.158 53.2839 192.45 56.161 194.72 56.36C192.45 56.56 192.158 59.436 192.158 59.436C192.158 59.436 191.866 56.559 189.596 56.36C191.866 56.161 192.158 53.2839 192.158 53.2839Z" fill="#02CCC0"/>
<path d="M232.18 137.142C232.18 137.142 232.618 141.457 236.023 141.756C232.618 142.056 232.18 146.37 232.18 146.37C232.18 146.37 231.742 142.055 228.337 141.756C231.742 141.457 232.18 137.142 232.18 137.142Z" fill="#FF5B7E"/>
<path d="M221.503 29.76C221.503 29.76 221.892 33.592 224.915 33.86C221.891 34.125 221.503 37.96 221.503 37.96C221.503 37.96 221.114 34.128 218.091 33.86C221.115 33.592 221.503 29.76 221.503 29.76Z" fill="#FEB546"/>
<path d="M41.5207 154.133C41.5207 154.133 41.7817 156.711 43.8207 156.89C41.7857 157.068 41.5207 159.647 41.5207 159.647C41.5207 159.647 41.2587 157.069 39.2207 156.89C41.2597 156.711 41.5207 154.133 41.5207 154.133Z" fill="#FEB546"/>
<path d="M207.915 81.6589C207.915 81.6589 208.176 84.232 210.207 84.41C208.177 84.588 207.915 87.1609 207.915 87.1609C207.915 87.1609 207.654 84.588 205.624 84.41C207.654 84.232 207.915 81.6589 207.915 81.6589Z" fill="#FF5B7E"/>
<path d="M172.568 14.125C172.568 14.125 172.829 16.698 174.859 16.876C172.829 17.054 172.568 19.627 172.568 19.627C172.568 19.627 172.307 17.054 170.277 16.876C172.307 16.698 172.568 14.125 172.568 14.125Z" fill="#FF5B7E"/>
<path d="M66.1338 46.876C66.1338 46.876 66.4758 50.243 69.1338 50.476C66.4768 50.709 66.1338 54.076 66.1338 54.076C66.1338 54.076 65.7928 50.709 63.1338 50.476C65.7928 50.243 66.1338 46.876 66.1338 46.876Z" fill="#FF5B7E"/>
<path d="M43.2787 105.196C43.2787 105.196 43.7788 110.129 47.6718 110.47C43.7788 110.811 43.2787 115.744 43.2787 115.744C43.2787 115.744 42.7787 110.811 38.8857 110.47C42.7787 110.129 43.2787 105.196 43.2787 105.196Z" fill="#FF5B7E"/>
<path d="M162.308 60.3792C162.308 60.3792 162.697 64.2111 165.72 64.4791C162.696 64.7441 162.308 68.5791 162.308 68.5791C162.308 68.5791 161.919 64.7471 158.896 64.4791C161.92 64.2111 162.308 60.3792 162.308 60.3792Z" fill="#FF5B7E"/>
<path d="M235.592 101.744C235.592 101.744 235.981 105.576 239.004 105.844C235.98 106.109 235.592 109.944 235.592 109.944C235.592 109.944 235.203 106.112 232.18 105.844C235.204 105.571 235.592 101.744 235.592 101.744Z" fill="#02CCC0"/>
<path d="M45.7098 23.1191C45.7098 23.1191 45.9868 25.8491 48.1408 26.0371C45.9868 26.2261 45.7098 28.9551 45.7098 28.9551C45.7098 28.9551 45.4328 26.2251 43.2788 26.0371C45.4358 25.8491 45.7098 23.1191 45.7098 23.1191Z" fill="#02CCC0"/>
<path d="M74.4638 90.593C74.4638 90.593 74.9068 94.964 78.3568 95.267C74.9078 95.567 74.4638 99.941 74.4638 99.941C74.4638 99.941 74.0208 95.57 70.5708 95.267C74.0208 94.964 74.4638 90.593 74.4638 90.593Z" fill="#02CCC0"/>
<path d="M36.1917 62.1331C36.1917 62.1331 36.4917 65.6011 38.8497 65.8411C36.4937 66.0811 36.1917 69.5491 36.1917 69.5491C36.1917 69.5491 35.8917 66.0811 33.5337 65.8411C35.8887 65.5971 36.1917 62.1331 36.1917 62.1331Z" fill="#FEB546"/>
<path d="M92.5938 6.68799C92.5938 6.68799 92.8938 10.166 95.2598 10.407C92.8978 10.648 92.5938 14.126 92.5938 14.126C92.5938 14.126 92.2937 10.648 89.9277 10.407C92.2897 10.166 92.5938 6.68799 92.5938 6.68799Z" fill="#FEB546"/>
<g style="mix-blend-mode:multiply">
<path d="M129.96 76.4893L135.928 76.9683L134.002 81.7963L130.99 81.5543L129.735 85.5782C129.429 85.4392 129.204 85.3332 129.159 85.3022C128.848 84.0016 128.609 82.6849 128.442 81.3582L129.96 76.4893Z" fill="#DAEEF7"/>
</g>
<path d="M133.366 120.885V122.985C133.366 123.026 133.374 123.067 133.389 123.106C133.405 123.144 133.428 123.179 133.457 123.208C133.487 123.237 133.521 123.26 133.559 123.276C133.597 123.292 133.638 123.3 133.68 123.3H138.592C138.669 123.3 138.743 123.274 138.805 123.228C138.866 123.181 138.911 123.117 138.932 123.043C138.953 122.969 138.951 122.89 138.924 122.818C138.897 122.746 138.847 122.685 138.783 122.643L136.027 120.881C135.625 121.121 135.165 121.249 134.697 121.249C134.228 121.25 133.769 121.124 133.366 120.885Z" fill="#E03268"/>
<path d="M123.724 31.7092C123.707 31.7147 123.69 31.7159 123.673 31.7128C123.656 31.7096 123.64 31.7021 123.627 31.6911C123.614 31.68 123.604 31.6657 123.598 31.6496C123.592 31.6335 123.59 31.6161 123.593 31.5992C123.807 30.7856 123.927 29.9501 123.95 29.1092C123.782 29.0322 123.406 30.6682 123.235 30.6882C123.064 30.7082 123.471 29.1212 123.278 29.0672C123.085 29.0132 122.762 30.4732 122.678 30.4782C122.594 30.4832 122.748 29.0522 122.653 28.9532C122.558 28.8542 122.203 30.3612 122.096 30.3982C121.989 30.4352 121.889 29.3142 121.796 29.3112C121.703 29.3082 121.634 29.2912 121.136 31.8812C121.134 32.2802 121.067 32.6763 120.936 33.0532L121.31 33.8162L122.469 33.8542C122.469 33.8542 124.986 31.5762 124.969 31.4382C124.952 31.3002 124.829 31.2762 123.724 31.7092Z" fill="#FFC0BB"/>
<path d="M135.651 32.2832C135.663 32.2954 135.678 32.3043 135.694 32.3091C135.71 32.3139 135.728 32.3144 135.744 32.3106C135.761 32.3068 135.776 32.2988 135.789 32.2873C135.802 32.2759 135.811 32.2614 135.817 32.2452C135.997 31.4235 136.271 30.6252 136.634 29.8662C136.819 29.8742 136.408 31.5022 136.551 31.5972C136.694 31.6922 137.051 30.0972 137.251 30.1352C137.451 30.1732 137.069 31.6212 137.146 31.6672C137.223 31.7132 137.734 30.3672 137.863 30.3202C137.992 30.2732 137.623 31.7782 137.7 31.8602C137.777 31.9422 138.378 30.9892 138.466 31.0312C138.554 31.0732 138.619 31.0862 137.882 33.6192C137.7 33.9744 137.579 34.3573 137.524 34.7522L136.844 35.2612L135.795 34.7672C135.795 34.7672 134.595 31.5922 134.674 31.4782C134.753 31.3642 134.864 31.3942 135.651 32.2832Z" fill="#FFC0BB"/>
<path d="M126.441 53.0272L126.459 57.4562L122.159 56.7932L122.877 51.8132L126.441 53.0272Z" fill="#FFC0BB"/>
<path opacity="0.6" d="M122.545 54.1062L122.876 51.8132L126.446 53.4472V54.3212C125.154 54.6518 123.792 54.5767 122.545 54.1062Z" fill="#FC8D84"/>
<path d="M118.667 120.652V122.959C118.667 123.051 118.63 123.138 118.565 123.203C118.501 123.268 118.413 123.304 118.322 123.304H112.922C112.837 123.304 112.754 123.277 112.687 123.226C112.619 123.175 112.57 123.104 112.546 123.022C112.522 122.941 112.526 122.854 112.555 122.775C112.585 122.696 112.64 122.629 112.712 122.583L115.743 120.651C116.185 120.913 116.69 121.051 117.204 121.052C117.719 121.052 118.224 120.914 118.667 120.652Z" fill="#E03268"/>
<path d="M113.733 81.4482C113.744 80.9542 112.459 82.4092 112.483 82.0162C112.983 73.8222 128.997 80.6922 128.997 80.6922L132.905 83.5602L137.317 121.535C136.025 121.914 134.659 121.957 133.346 121.661L123.576 89.1192L122.376 88.6572C119.3 86.4975 116.409 84.0862 113.733 81.4482Z" fill="#07085B"/>
<path d="M112.465 82.3501C112.465 82.4501 112.456 82.5441 112.452 82.6451C112.456 82.5441 112.46 82.4461 112.465 82.3501Z" fill="#06BFAD"/>
<path d="M112.451 82.6492C112.451 82.7492 112.443 82.8572 112.44 82.9652C112.443 82.8572 112.447 82.7512 112.451 82.6492Z" fill="#06BFAD"/>
<path d="M112.44 83.0071C112.44 83.1191 112.434 83.233 112.431 83.35C112.434 83.233 112.437 83.1191 112.44 83.0071Z" fill="#06BFAD"/>
<path d="M112.485 80.1541C115.606 83.1852 118.908 86.0238 122.374 88.6541L118.66 121.532C118.66 121.532 116.013 122.032 114.5 121.217C114.501 121.219 112.271 89.9241 112.485 80.1541Z" fill="#07085B"/>
<path d="M133.808 121.789C133.914 121.811 134.023 121.828 134.132 121.842C134.023 121.828 133.914 121.81 133.808 121.789Z" fill="#06BFAD"/>
<path d="M132.905 83.5592L133.535 88.9792C131.869 89.6242 127.807 90.3132 124.748 83.6192C123.955 82.1782 123.595 80.5387 123.713 78.8982C125.511 79.382 127.276 79.9808 128.998 80.6912L132.905 83.5592Z" fill="#050645"/>
<path d="M118.216 61.438C118.401 61.438 121.174 55.1531 121.174 55.1531C123.546 56.8171 126.766 55.6611 126.766 55.6611C126.766 55.6611 139.721 79.368 131.033 83.061C122.345 86.754 114.15 82.261 114.15 82.261C114.15 82.261 112.301 77.4551 112.301 77.2701C112.301 77.0851 118.031 61.438 118.216 61.438Z" fill="#DAEEF7"/>
<path d="M135.102 34.8192C135.102 34.8192 135.663 46.0673 134.609 48.1283C131.109 54.9683 126.768 55.6613 126.768 55.6613C126.768 55.6613 125.274 79.5832 126.506 85.3142C126.506 85.3142 130.606 86.5773 136.642 83.7433C136.642 83.7433 132.021 65.1963 132.267 62.8553C132.267 62.8553 139.661 56.2623 139.907 48.4983C140.006 43.5501 139.405 38.6127 138.12 33.8333L135.102 34.8192Z" fill="#55769F"/>
<path d="M115.166 84.4511C115.533 78.6118 116.369 72.8115 117.666 67.1061C118.552 63.0434 119.726 59.0487 121.178 55.1521C118.451 52.1521 118.904 49.4331 119.145 45.9101C119.422 41.8431 123.397 33.7101 123.397 33.7101L120.717 31.9541C107.87 47.3891 114.987 59.6811 114.987 59.6811C114.987 59.6811 110.181 76.6871 109.534 81.8631C111.34 82.8733 113.223 83.7387 115.166 84.4511Z" fill="#55769F"/>
<path d="M132.14 62.8251C131.948 62.6837 131.775 62.5187 131.624 62.3342C131.111 61.6842 130.76 60.9215 130.601 60.1091C130.828 60.892 131.201 61.6249 131.701 62.2692C131.871 62.4822 132.073 62.6674 132.301 62.8182L132.265 62.8511C132.265 62.8661 132.265 62.8831 132.265 62.9001C131.922 62.9467 131.574 62.8651 131.288 62.6711C130.992 62.5063 130.717 62.3084 130.466 62.0812C130.734 62.2816 131.019 62.4589 131.318 62.6111C131.571 62.7456 131.853 62.8188 132.14 62.8251Z" fill="white"/>
<path d="M115.077 59.624C115.297 59.4724 115.495 59.2907 115.664 59.084C116.167 58.4422 116.541 57.7086 116.764 56.9241C116.604 57.7364 116.254 58.499 115.741 59.149C115.59 59.3337 115.417 59.4986 115.225 59.64C115.347 59.6451 115.469 59.6309 115.587 59.598C115.747 59.557 115.903 59.4993 116.051 59.426C116.35 59.2742 116.635 59.0969 116.903 58.8961C116.652 59.1231 116.376 59.321 116.081 59.486C115.931 59.5692 115.773 59.6363 115.609 59.686C115.439 59.7421 115.257 59.7514 115.082 59.7131L114.982 59.686L115.077 59.624Z" fill="white"/>
<path d="M120.27 43.9901L120.01 47.0291L120.49 47.3292L121.378 43.6292L120.27 43.9901Z" fill="#07085B"/>
<path d="M120.916 46.7153C120.909 46.9113 120.848 47.1016 120.738 47.2643C120.629 47.427 120.476 47.5554 120.296 47.6347C120.117 47.7141 119.919 47.7412 119.725 47.7128C119.53 47.6845 119.348 47.6019 119.199 47.4745C119.05 47.3472 118.94 47.1803 118.881 46.9931C118.823 46.8059 118.818 46.6059 118.869 46.4163C118.919 46.2267 119.022 46.0551 119.165 45.9214C119.309 45.7876 119.487 45.6971 119.679 45.6603C119.982 45.6402 120.281 45.7393 120.512 45.9364C120.743 46.1335 120.888 46.413 120.916 46.7153Z" fill="#F99893"/>
<path d="M120.127 49.5251C120.004 48.6794 119.989 47.8215 120.084 46.9721C120.101 46.8061 120.108 46.6401 120.112 46.4721C120.13 45.7205 120.304 44.9807 120.623 44.2999C120.942 43.6191 121.399 43.0121 121.965 42.5173C122.531 42.0226 123.194 41.6509 123.911 41.426C124.629 41.2011 125.385 41.1279 126.132 41.2109C126.879 41.2939 127.601 41.5314 128.252 41.9083C128.902 42.2851 129.467 42.7931 129.911 43.4001C130.355 44.007 130.668 44.6996 130.829 45.4338C130.991 46.168 130.998 46.9279 130.851 47.6651C131.024 47.6021 131.209 47.5807 131.391 47.6026C131.574 47.6244 131.749 47.689 131.902 47.7911C132.15 48.0674 132.296 48.4197 132.317 48.7902C132.338 49.1608 132.232 49.5274 132.017 49.8299C131.802 50.1323 131.491 50.3527 131.134 50.4547C130.777 50.5567 130.396 50.5342 130.054 50.3911C129.976 50.3344 129.906 50.2671 129.846 50.1911C129.493 51.4145 128.694 52.461 127.607 53.1237C126.519 53.7864 125.223 54.017 123.974 53.7701C122.974 53.543 122.069 53.0138 121.381 52.2544C120.693 51.4949 120.255 50.542 120.127 49.5251Z" fill="#FFC0BB"/>
<path d="M126.008 47.0941C125.97 47.1888 125.964 47.293 125.991 47.3913C126.017 47.4896 126.075 47.5768 126.155 47.6399C126.235 47.703 126.333 47.7387 126.435 47.7417C126.536 47.7448 126.636 47.7149 126.72 47.6567C126.803 47.5984 126.866 47.5148 126.898 47.4183C126.93 47.3217 126.931 47.2173 126.899 47.1206C126.867 47.0238 126.805 46.9398 126.722 46.881C126.639 46.8222 126.539 46.7917 126.438 46.7941C126.344 46.7962 126.254 46.8259 126.177 46.8792C126.101 46.9326 126.042 47.0073 126.008 47.0941Z" fill="#333333"/>
<path d="M121.98 46.4911C121.942 46.5858 121.937 46.69 121.963 46.7883C121.99 46.8866 122.047 46.9738 122.127 47.0369C122.207 47.1 122.305 47.1357 122.407 47.1387C122.508 47.1417 122.608 47.1119 122.692 47.0537C122.775 46.9954 122.838 46.9118 122.87 46.8153C122.903 46.7187 122.903 46.6143 122.871 46.5176C122.84 46.4208 122.778 46.3368 122.695 46.278C122.611 46.2192 122.512 46.1887 122.41 46.191C122.317 46.1932 122.226 46.2228 122.15 46.2762C122.073 46.3296 122.014 46.4043 121.98 46.4911Z" fill="#333333"/>
<path d="M125.382 50.4051C125.141 50.5247 124.885 50.6124 124.621 50.6661C124.36 50.7199 124.093 50.7301 123.829 50.6961C123.566 50.6587 123.313 50.5703 123.084 50.4361C122.855 50.2954 122.646 50.123 122.465 49.9241C122.621 50.1496 122.817 50.344 123.045 50.4971C123.277 50.6505 123.54 50.7503 123.815 50.7891C124.089 50.8246 124.368 50.8066 124.636 50.7361C124.902 50.67 125.154 50.558 125.382 50.4051Z" fill="#F99893"/>
<path d="M125.625 46.1341C125.859 46.0899 126.095 46.0645 126.332 46.0581C126.554 46.0526 126.776 46.0789 126.99 46.1361C127.203 46.1928 127.405 46.2815 127.59 46.3991C127.791 46.5275 127.985 46.6664 128.17 46.8151C128.085 46.5744 127.943 46.3582 127.755 46.1851C127.565 46.0019 127.33 45.871 127.073 45.8051C126.819 45.737 126.551 45.7325 126.294 45.7921C126.046 45.8472 125.816 45.965 125.625 46.1341Z" fill="#07085B"/>
<path d="M123.745 45.8231C123.618 45.6008 123.436 45.4149 123.217 45.2831C122.992 45.1444 122.737 45.0631 122.474 45.0461C122.21 45.0268 121.946 45.0757 121.707 45.1881C121.472 45.2916 121.266 45.4508 121.107 45.6521C121.33 45.5705 121.558 45.5011 121.789 45.4441C122.004 45.3923 122.225 45.3738 122.446 45.3891C122.667 45.4037 122.886 45.4499 123.094 45.5261C123.319 45.6074 123.536 45.7068 123.745 45.8231Z" fill="#07085B"/>
<path d="M124.563 46.4202C124.343 46.6291 124.137 46.8526 123.946 47.0892C123.752 47.3243 123.575 47.5729 123.415 47.8332C123.308 48.0015 123.229 48.1868 123.183 48.3812C123.168 48.4812 123.176 48.5811 123.342 48.7401C123.449 48.8526 123.569 48.9532 123.699 49.0402C123.826 49.1264 123.959 49.2026 124.099 49.2682C123.866 49.0815 123.65 48.8744 123.454 48.6492C123.415 48.599 123.382 48.5446 123.355 48.4872C123.351 48.429 123.362 48.3709 123.386 48.3181C123.441 48.1834 123.508 48.0539 123.587 47.9312C123.737 47.6762 123.907 47.4312 124.074 47.1782C124.241 46.9252 124.4 46.6772 124.563 46.4202Z" fill="#F99893"/>
<path d="M120.836 40.7442C120.836 40.7442 119.236 40.4372 121.206 39.4732C123.176 38.5092 127.994 37.9482 130.515 40.1072C130.515 40.1072 131.363 39.0192 132.124 39.4972C132.885 39.9752 131.331 40.5032 131.331 40.5032C131.331 40.5032 132.395 40.7082 132.601 41.3032C132.753 41.7402 132.101 41.6112 131.752 41.5132C132.33 41.7512 134.031 43.3582 131.822 47.7462C130.771 46.5449 129.796 45.2795 128.903 43.9572C128.903 43.9572 123.821 45.6272 124.747 44.2422C124.747 44.2422 118.824 45.7322 120.26 43.0422C120.26 43.0422 118.076 42.7172 120.836 40.7442Z" fill="#07085B"/>
<path d="M131.821 47.7422C131.678 47.6517 131.514 47.5975 131.346 47.5842C131.177 47.571 131.007 47.5991 130.852 47.6662C130.266 47.8832 129.894 49.1973 129.894 49.1973C129.894 49.1973 127.976 50.7682 128.911 43.9232C129.83 37.1982 131.102 45.0423 131.102 45.0423L131.821 47.7422Z" fill="#07085B"/>
<path d="M134.619 26.696L125.85 26.071C125.744 26.0635 125.641 26.0353 125.546 25.988C125.452 25.9407 125.367 25.8751 125.298 25.7952C125.229 25.7152 125.176 25.6224 125.143 25.522C125.109 25.4216 125.096 25.3155 125.104 25.21C125.111 25.1045 125.139 25.0014 125.187 24.9068C125.234 24.8122 125.3 24.7278 125.379 24.6585C125.459 24.5892 125.552 24.5364 125.653 24.503C125.753 24.4696 125.859 24.4564 125.965 24.464L134.734 25.089C134.839 25.0965 134.942 25.1247 135.037 25.172C135.132 25.2194 135.216 25.2849 135.285 25.3649C135.354 25.4448 135.407 25.5377 135.441 25.6381C135.474 25.7385 135.487 25.8445 135.48 25.95C135.472 26.0555 135.444 26.1586 135.397 26.2532C135.349 26.3479 135.284 26.4322 135.204 26.5015C135.124 26.5708 135.031 26.6236 134.931 26.657C134.83 26.6904 134.724 26.7036 134.619 26.696Z" fill="#FEB546"/>
<path d="M132.094 0.289062L135.158 7.80106L143.084 9.53506L136.884 14.7711L137.684 22.8451L130.789 18.5691L123.358 21.8241L125.294 13.9451L119.901 7.88406L127.992 7.29106L132.094 0.289062Z" fill="#FEB546"/>
<path d="M132.094 0.289062L131.309 11.3121L135.159 7.80106L132.094 0.289062Z" fill="#F4A640"/>
<path d="M143.084 9.53516L131.309 11.3112L136.887 14.7702L143.084 9.53516Z" fill="#F4A640"/>
<path d="M131.308 11.312L127.995 7.29102L119.904 7.88402L131.308 11.312Z" fill="#F4A640"/>
<path d="M123.36 21.8211L131.308 11.3091L125.296 13.9431L123.36 21.8211Z" fill="#F4A640"/>
<path d="M137.686 22.844L131.308 11.311L130.791 18.568L137.686 22.844Z" fill="#F4A640"/>
<path d="M136.883 27.0282L123.561 26.0791L123.227 30.7612L136.55 31.7103L136.883 27.0282Z" fill="#6F747A"/>
<g style="mix-blend-mode:multiply">
<path d="M123.264 30.2493L123.228 30.761L136.55 31.7099L136.587 31.1982L123.264 30.2493Z" fill="#CDD6E0"/>
</g>
<g style="mix-blend-mode:multiply">
<path d="M123.57 25.9473L123.534 26.459L136.856 27.4079L136.892 26.8962L123.57 25.9473Z" fill="#CDD6E0"/>
</g>
<path d="M136.768 27.253L123.645 26.318C123.566 26.3128 123.488 26.292 123.417 26.2567C123.346 26.2213 123.283 26.1723 123.231 26.1123C123.179 26.0523 123.139 25.9826 123.114 25.9072C123.089 25.8318 123.08 25.7522 123.086 25.673C123.091 25.5939 123.112 25.5166 123.147 25.4456C123.182 25.3745 123.231 25.3112 123.291 25.2592C123.351 25.2072 123.421 25.1676 123.496 25.1427C123.571 25.1178 123.651 25.108 123.73 25.114L136.853 26.049C136.932 26.0542 137.009 26.0751 137.08 26.1104C137.152 26.1457 137.215 26.1948 137.267 26.2548C137.319 26.3148 137.359 26.3845 137.383 26.4599C137.408 26.5353 137.418 26.6149 137.412 26.694C137.407 26.7732 137.386 26.8505 137.35 26.9215C137.315 26.9925 137.266 27.0559 137.206 27.1079C137.146 27.1598 137.077 27.1994 137.002 27.2243C136.926 27.2493 136.847 27.259 136.768 27.253Z" fill="#F4A640"/>
<path d="M136.723 32.8101L122.723 31.8101C122.68 31.807 122.64 31.7871 122.612 31.7546C122.584 31.7222 122.57 31.6799 122.573 31.6371L122.636 30.7571C122.639 30.7143 122.659 30.6744 122.691 30.6463C122.724 30.6182 122.766 30.6041 122.809 30.6071L136.809 31.6071C136.852 31.6102 136.891 31.6301 136.919 31.6625C136.948 31.695 136.962 31.7373 136.959 31.7801L136.896 32.6601C136.893 32.7029 136.873 32.7428 136.84 32.7709C136.808 32.799 136.766 32.8131 136.723 32.8101Z" fill="#6F747A"/>
<path d="M132.455 30.1761L127.389 29.8151C127.087 29.7936 126.805 29.6529 126.607 29.4239C126.408 29.1949 126.309 28.8964 126.33 28.5941C126.352 28.2918 126.492 28.0104 126.721 27.8118C126.95 27.6132 127.249 27.5136 127.551 27.5351L132.617 27.8961C132.919 27.9176 133.201 28.0583 133.399 28.2873C133.598 28.5163 133.697 28.8148 133.676 29.1171C133.655 29.4194 133.514 29.7008 133.285 29.8994C133.056 30.098 132.757 30.1975 132.455 30.1761Z" fill="#FEB546"/>
<g style="mix-blend-mode:multiply">
<path d="M127.417 29.4351C127.309 29.4272 127.204 29.3966 127.109 29.3452C127.014 29.2938 126.931 29.2229 126.866 29.137C126.8 29.0512 126.754 28.9525 126.729 28.8473C126.705 28.7422 126.703 28.633 126.724 28.5271C126.765 28.3416 126.873 28.1775 127.026 28.0653C127.179 27.953 127.368 27.9004 127.558 27.9171L132.558 28.2731C132.748 28.2834 132.927 28.3623 133.063 28.4952C133.199 28.628 133.282 28.8056 133.297 28.9951C133.302 29.1029 133.285 29.2106 133.246 29.3112C133.206 29.4117 133.146 29.5028 133.069 29.5784C132.992 29.6541 132.9 29.7125 132.799 29.7498C132.697 29.7871 132.589 29.8026 132.482 29.7951L127.417 29.4351Z" fill="#D9D9D9"/>
</g>
<path d="M131.724 25.3631L128.906 25.1631L128.925 24.9021C129.039 22.6734 129.679 20.5033 130.792 18.5691C131.636 20.6371 131.963 22.8802 131.743 25.1031L131.724 25.3631Z" fill="#FEB546"/>
<defs>
<filter id="filter0_d_1_6717" x="0" y="200" width="251" height="39" filterUnits="userSpaceOnUse" color-interpolation-filters="sRGB">
<feFlood flood-opacity="0" result="BackgroundImageFix"/>
<feColorMatrix in="SourceAlpha" type="matrix" values="0 0 0 0 0 0 0 0 0 0 0 0 0 0 0 0 0 0 127 0" result="hardAlpha"/>
<feOffset dy="3"/>
<feGaussianBlur stdDeviation="6.5"/>
<feColorMatrix type="matrix" values="0 0 0 0 0 0 0 0 0 0 0 0 0 0 0 0 0 0 0.278 0"/>
<feBlend mode="normal" in2="BackgroundImageFix" result="effect1_dropShadow_1_6717"/>
<feBlend mode="normal" in="SourceGraphic" in2="effect1_dropShadow_1_6717" result="shape"/>
</filter>
</defs>
</svg>
