<svg width="71" height="70" viewBox="0 0 71 70" fill="none" xmlns="http://www.w3.org/2000/svg">
<path d="M60.5 0H10.5C4.97715 0 0.5 4.47715 0.5 10V60C0.5 65.5229 4.97715 70 10.5 70H60.5C66.0229 70 70.5 65.5229 70.5 60V10C70.5 4.47715 66.0229 0 60.5 0Z" fill="#F4EBFC"/>
<path d="M33.8571 27.5122C33.8572 27.3606 33.8274 27.2105 33.7695 27.0704C33.7115 26.9303 33.6265 26.8031 33.5194 26.6959C33.4122 26.5887 33.2849 26.5037 33.1448 26.4458C33.0048 26.3878 32.8546 26.3581 32.7031 26.3582H30.8731L33.5191 23.7122C33.6804 23.5508 33.7904 23.3452 33.8349 23.1213C33.8794 22.8975 33.8566 22.6654 33.7692 22.4546C33.6819 22.2437 33.534 22.0635 33.3442 21.9367C33.1544 21.8099 32.9313 21.7422 32.7031 21.7422H28.0891C27.783 21.7422 27.4895 21.8638 27.2731 22.0802C27.0566 22.2966 26.9351 22.5901 26.9351 22.8962C26.9351 23.2022 27.0566 23.4958 27.2731 23.7122C27.4895 23.9286 27.783 24.0502 28.0891 24.0502H29.9191L27.2731 26.6962C27.1117 26.8576 27.0018 27.0632 26.9572 27.2871C26.9127 27.5109 26.9356 27.7429 27.0229 27.9538C27.1102 28.1647 27.2582 28.3449 27.4479 28.4717C27.6377 28.5985 27.8608 28.6662 28.0891 28.6662H32.7041C32.8556 28.6662 33.0056 28.6363 33.1455 28.5783C33.2855 28.5203 33.4126 28.4353 33.5197 28.3281C33.6268 28.221 33.7117 28.0937 33.7696 27.9537C33.8275 27.8137 33.8572 27.6637 33.8571 27.5122Z" fill="#943AE3"/>
<path d="M36.2526 21.0311C36.3398 21.242 36.4877 21.4223 36.6774 21.549C36.8672 21.6758 37.0904 21.7433 37.3186 21.7431H41.9336C42.2397 21.7431 42.5332 21.6215 42.7496 21.4051C42.966 21.1887 43.0876 20.8951 43.0876 20.5891C43.0876 20.283 42.966 19.9895 42.7496 19.7731C42.5332 19.5567 42.2397 19.4351 41.9336 19.4351H40.1036L42.7496 16.7891C42.9107 16.6276 43.0203 16.4221 43.0646 16.1984C43.1089 15.9747 43.086 15.7429 42.9987 15.5323C42.9114 15.3216 42.7636 15.1415 42.5741 15.0148C42.3845 14.888 42.1616 14.8203 41.9336 14.8201H37.3186C37.0126 14.8201 36.719 14.9417 36.5026 15.1581C36.2862 15.3745 36.1646 15.668 36.1646 15.9741C36.1646 16.2801 36.2862 16.5737 36.5026 16.7901C36.719 17.0065 37.0126 17.1281 37.3186 17.1281H39.1486L36.5026 19.7741C36.3411 19.9353 36.2312 20.1408 36.1867 20.3646C36.1422 20.5884 36.1651 20.8203 36.2526 21.0311Z" fill="#943AE3"/>
<path d="M51.2408 33.281H35.0108C34.0932 33.2821 33.2135 33.647 32.5647 34.2959C31.9158 34.9447 31.5509 35.8244 31.5498 36.742V41.357C31.5497 41.5086 31.5794 41.6587 31.6374 41.7988C31.6953 41.9389 31.7803 42.0661 31.8875 42.1733C31.9947 42.2805 32.122 42.3655 32.262 42.4234C32.4021 42.4814 32.5522 42.5111 32.7038 42.511H54.7038V36.742C54.7028 35.8241 54.3375 34.9441 53.6882 34.2952C53.0389 33.6463 52.1587 33.2815 51.2408 33.281Z" fill="#943AE3"/>
<path d="M29.2418 41.3582V40.2041H17.6278V27.5122C17.6278 27.3606 17.598 27.2106 17.54 27.0705C17.482 26.9305 17.397 26.8033 17.2898 26.6962C17.1827 26.589 17.0555 26.504 16.9154 26.446C16.7754 26.388 16.6254 26.3582 16.4738 26.3582C16.3223 26.3582 16.1722 26.388 16.0322 26.446C15.8922 26.504 15.765 26.589 15.6578 26.6962C15.5507 26.8033 15.4657 26.9305 15.4077 27.0705C15.3497 27.2106 15.3198 27.3606 15.3198 27.5122V53.0491C15.3198 53.2007 15.3497 53.3508 15.4077 53.4908C15.4657 53.6308 15.5507 53.758 15.6578 53.8652C15.765 53.9723 15.8922 54.0573 16.0322 54.1153C16.1722 54.1733 16.3223 54.2032 16.4738 54.2032C16.6254 54.2032 16.7754 54.1733 16.9154 54.1153C17.0555 54.0573 17.1827 53.9723 17.2898 53.8652C17.397 53.758 17.482 53.6308 17.54 53.4908C17.598 53.3508 17.6278 53.2007 17.6278 53.0491V49.5112H52.3948V53.0491C52.3948 53.3552 52.5164 53.6487 52.7328 53.8652C52.9492 54.0816 53.2428 54.2032 53.5488 54.2032C53.8549 54.2032 54.1484 54.0816 54.3648 53.8652C54.5812 53.6487 54.7028 53.3552 54.7028 53.0491V44.8192H32.7028C32.2483 44.8192 31.7983 44.7296 31.3784 44.5557C30.9584 44.3818 30.5769 44.1268 30.2555 43.8055C29.9341 43.4841 29.6792 43.1025 29.5053 42.6826C29.3313 42.2627 29.2418 41.8127 29.2418 41.3582Z" fill="#943AE3"/>
<path d="M29.2428 34.4341C29.2428 35.1186 29.0398 35.7877 28.6596 36.3569C28.2793 36.926 27.7389 37.3696 27.1065 37.6316C26.4741 37.8936 25.7783 37.9622 25.107 37.8287C24.4356 37.6953 23.8189 37.3657 23.3349 36.8818C22.8508 36.3979 22.5211 35.7813 22.3874 35.11C22.2538 34.4387 22.3222 33.7428 22.584 33.1104C22.8458 32.4779 23.2892 31.9373 23.8582 31.5569C24.4273 31.1765 25.0963 30.9733 25.7808 30.9731C26.2354 30.973 26.6856 31.0624 27.1056 31.2363C27.5256 31.4102 27.9073 31.6651 28.2287 31.9865C28.5502 32.3079 28.8053 32.6895 28.9793 33.1095C29.1532 33.5294 29.2428 33.9796 29.2428 34.4341Z" fill="#943AE3"/>
</svg>
