<svg width="193" height="56" viewBox="0 0 193 56" fill="none" xmlns="http://www.w3.org/2000/svg">
<path d="M29.6621 0.00195313C28.4199 0.448343 27.3179 1.21538 26.4678 2.22522C25.6178 3.23507 25.05 4.4518 24.8221 5.75195L16.8621 51.148C16.6495 52.3661 16.0143 53.4704 15.0683 54.2667C14.1222 55.063 12.9257 55.5004 11.6891 55.502H0.662109L9.62111 4.35495C9.8337 3.13594 10.4696 2.03101 11.4168 1.23474C12.3639 0.43847 13.5617 0.00191773 14.7991 0.00195313L29.6621 0.00195313Z" fill="white"/>
<path d="M29.6573 0.00195313C28.4158 0.448361 27.3145 1.21537 26.4653 2.22509C25.6161 3.23481 25.0493 4.45128 24.8223 5.75095L21.5563 24.002C20.9532 27.4481 19.1546 30.5713 16.4766 32.8226C13.7987 35.0738 10.4128 36.309 6.91433 36.311H3.96533L9.62233 4.35495C9.83471 3.13602 10.4704 2.03111 11.4174 1.23483C12.3644 0.438544 13.562 0.00195522 14.7993 0.00195312L29.6573 0.00195313Z" fill="white"/>
<path d="M29.6579 0.00292978C28.4157 0.449387 27.3138 1.21675 26.4642 2.22704C25.6146 3.23733 25.0477 4.45453 24.8209 5.75493L22.0979 21.3029C21.4929 24.7474 19.6934 27.8685 17.0157 30.118C14.3379 32.3674 10.9531 33.6013 7.45591 33.6029H4.50391L9.62091 4.35593C9.83331 3.13683 10.4691 2.03179 11.4164 1.23548C12.3636 0.439178 13.5614 0.00269639 14.7989 0.00292978H29.6579Z" fill="white"/>
<path d="M114.711 0L114.185 3L113.298 7.974C113.08 9.18994 112.44 10.2901 111.492 11.0814C110.543 11.8727 109.346 12.3045 108.11 12.301H94.7573C93.7637 12.303 92.7908 12.5857 91.9508 13.1164C91.1107 13.6472 90.4377 14.4045 90.0093 15.301C89.8082 15.7317 89.6618 16.1859 89.5733 16.653L88.6163 22.2H105.154L104.693 24.92L103.941 29.42C103.93 29.5215 103.91 29.6219 103.881 29.72C103.613 30.8778 102.96 31.9108 102.031 32.6511C101.101 33.3914 99.9479 33.7956 98.7593 33.798H90.9903C90.0496 33.7948 89.1256 34.0459 88.3158 34.5247C87.5061 35.0035 86.8408 35.6922 86.3903 36.518C86.1024 37.021 85.9041 37.5701 85.8043 38.141L83.5043 51.169C83.288 52.382 82.6522 53.4805 81.7081 54.2722C80.7639 55.0639 79.5715 55.4985 78.3393 55.5H63.4663C64.7713 54.8266 65.9065 53.8658 66.7863 52.69C67.6559 51.5054 68.242 50.1369 68.4993 48.69L69.8663 40.85L70.3473 38.13L71.0393 34.21L71.9853 28.8L72.4463 26.08L73.5743 19.7L74.1003 16.7L76.2493 4.362C76.4653 3.14198 77.1032 2.03668 78.0516 1.23933C78.9999 0.441979 80.1983 0.00330767 81.4373 0L114.711 0Z" fill="white"/>
<path d="M90.9859 33.792C90.0452 33.7887 89.1211 34.0398 88.3113 34.5186C87.5016 34.9974 86.8363 35.6862 86.3859 36.512H81.8649C77.4784 36.5114 73.2303 38.0477 69.8589 40.854L70.3429 38.134C73.707 35.326 77.9508 33.7892 82.3329 33.792H90.9859Z" fill="white"/>
<path d="M82.8572 22.1911C79.0315 22.1932 75.3347 23.5747 72.4452 26.0821L71.9842 28.8021L71.0372 34.2121L70.3452 38.1321C73.7093 35.324 77.9531 33.7872 82.3352 33.7901H98.7582C99.9484 33.7877 101.103 33.3824 102.033 32.6403C102.963 31.8982 103.615 30.8629 103.882 29.7031C103.911 29.605 103.931 29.5047 103.942 29.4031L104.694 24.9031L105.155 22.1831L82.8572 22.1911Z" fill="white"/>
<path d="M94.757 12.306C93.7634 12.308 92.7905 12.5907 91.9505 13.1214C91.1105 13.6522 90.4375 14.4095 90.009 15.306H83.5651C81.6387 15.4088 79.7527 15.8984 78.0196 16.7456C76.2864 17.5927 74.7416 18.7801 73.4771 20.237L74.1001 16.688C75.371 15.3051 76.9153 14.201 78.6351 13.4459C80.3549 12.6907 82.2128 12.3009 84.091 12.301L94.757 12.306Z" fill="white"/>
<path d="M81.4303 0C80.192 0.00309759 78.9942 0.441061 78.0459 1.23741C77.0977 2.03376 76.4593 3.13789 76.2423 4.357L74.0933 16.693C75.3639 15.3105 76.9077 14.2067 78.627 13.4516C80.3462 12.6964 82.2035 12.3063 84.0813 12.306H108.109C109.345 12.3095 110.542 11.8777 111.491 11.0864C112.439 10.2951 113.079 9.19494 113.297 7.979L114.181 3.006L114.707 0.006L81.4303 0Z" fill="white"/>
<path d="M133.972 0.00292978L125.017 51.1509C124.803 52.3692 124.167 53.4731 123.219 54.2687C122.272 55.0642 121.075 55.5005 119.838 55.5009H108.812L117.772 4.35593C117.984 3.13683 118.62 2.03179 119.567 1.23548C120.515 0.439178 121.713 0.00269639 122.95 0.00292978H133.972Z" fill="white"/>
<path d="M115.145 36.3119H112.136L117.772 4.35593C117.985 3.13699 118.62 2.03209 119.567 1.2358C120.514 0.43952 121.712 0.00293178 122.949 0.00292969L133.971 0.00292969L129.791 24.0029C129.188 27.4497 127.389 30.5735 124.71 32.8248C122.031 35.0762 118.644 36.3109 115.145 36.3119Z" fill="white"/>
<path d="M115.595 33.6119H112.586L117.774 4.35593C117.986 3.13683 118.622 2.03179 119.569 1.23548C120.517 0.439178 121.714 0.00269639 122.952 0.00292978H133.974L130.245 21.3029C129.64 24.7486 127.839 27.8706 125.16 30.1202C122.481 32.3698 119.094 33.603 115.596 33.6029L115.595 33.6119Z" fill="white"/>
<path d="M192.971 0.00195312H180.941C179.198 0.00204597 177.48 0.405777 175.919 1.18149C174.359 1.9572 173 3.0838 171.948 4.47295L166.048 12.336L169.124 17.362C170.6 20.2136 171.416 23.3611 171.511 26.571L192.971 0.00195312ZM160.565 44.538L163.109 49.453C164.051 51.2732 165.475 52.7995 167.226 53.865C168.976 54.9304 170.986 55.4939 173.036 55.494H184.509L171.349 30.074C170.849 32.3001 169.781 34.3587 168.249 36.049L160.565 44.538Z" fill="white"/>
<path d="M165.047 33.901L163.44 35.674C163.44 35.689 163.44 35.704 163.425 35.704L154.259 45.801L152.396 47.859L149.496 51.045C148.441 52.4321 147.08 53.5566 145.519 54.3308C143.958 55.1049 142.239 55.5078 140.496 55.508H128.461L149.691 29.211L151.509 26.972L138.648 2.12098L137.552 0.000976562H149.032C151.078 0.00244605 153.084 0.564938 154.832 1.62725C156.58 2.68955 158.003 4.21098 158.947 6.02598L166.715 21.081C167.773 23.1341 168.18 25.4609 167.882 27.7514C167.584 30.0418 166.595 32.187 165.047 33.901Z" fill="white"/>
<path d="M166.713 21.08L158.944 6.025C158.001 4.21069 156.579 2.68969 154.831 1.62742C153.084 0.56515 151.079 0.00227263 149.034 0L137.549 0L138.649 2.119L151.508 26.971L152.876 29.616C154.439 32.6287 155.253 35.9732 155.25 39.367C155.249 41.5487 154.915 43.7174 154.258 45.798L163.424 35.698C163.439 35.698 163.439 35.683 163.439 35.668L165.046 33.895C166.594 32.1812 167.582 30.0365 167.88 27.7467C168.178 25.4569 167.771 23.1306 166.713 21.078V21.08Z" fill="white"/>
<path d="M155.25 39.3669C155.249 41.5486 154.915 43.7173 154.258 45.7979L152.393 47.8559C154.073 42.5081 153.569 36.7132 150.993 31.7349L149.693 29.2109L151.511 26.9719L152.878 29.6169C154.44 32.6295 155.253 35.9737 155.25 39.3669Z" fill="white"/>
<path d="M56.1893 31.439L61.6373 0.0849609H41.2183L56.1893 31.439Z" fill="white"/>
<path d="M59.5513 12.097L61.6373 0.0849609H41.2183L47.7303 13.722C48.3024 14.9208 49.241 15.9065 50.4103 16.5368C51.5795 17.1671 52.9189 17.4093 54.2349 17.2283C55.5508 17.0473 56.7751 16.4525 57.7308 15.5299C58.6865 14.6073 59.324 13.4057 59.5513 12.097Z" fill="white"/>
<path d="M60.2643 7.99596L61.6393 0.0849609H41.2183L45.9363 9.96696C46.6298 11.42 47.7674 12.6149 49.1846 13.3789C50.6019 14.1429 52.2254 14.4364 53.8205 14.2169C55.4155 13.9975 56.8995 13.2766 58.0578 12.1583C59.2162 11.04 59.9889 9.58231 60.2643 7.99596Z" fill="white"/>
<path d="M36.908 24.5349L31.418 55.4949H51.873L36.908 24.5349Z" fill="white"/>
<path d="M33.4263 44.2001L31.4263 55.5001H51.8853L45.6063 42.5151C45.0142 41.282 44.0458 40.2688 42.8407 39.6217C41.6356 38.9746 40.2561 38.7269 38.9012 38.9145C37.5462 39.1021 36.2859 39.7151 35.3019 40.6653C34.3179 41.6154 33.6611 42.8535 33.4263 44.2011V44.2001Z" fill="white"/>
<path d="M32.812 47.634L31.418 55.502H51.879L47.117 45.656C46.4184 44.2118 45.2802 43.026 43.8658 42.269C42.4513 41.512 40.8334 41.2226 39.2442 41.4425C37.6551 41.6623 36.1764 42.38 35.0206 43.4926C33.8648 44.6052 33.0912 46.0554 32.811 47.635L32.812 47.634Z" fill="white"/>
</svg>
